<svg width="3218" height="500" viewBox="0 0 3218 500" fill="none" xmlns="http://www.w3.org/2000/svg">
<g clip-path="url(#clip0_42_2040)">
<path fill-rule="evenodd" clip-rule="evenodd" d="M170.364 243.676C170.077 303.375 193.922 361.639 265.171 361.639C316.884 362.213 336.132 332.651 345.613 291.607V288.45H512.243V292.756C511.668 384.313 423.756 479.889 268.044 479.889C96.243 478.741 0 374.555 0 241.38C0.574585 99.5943 106.873 4.87926 270.63 6.60135C416.287 7.4624 497.016 74.3369 510.519 187.708V192.3H344.464V188.856C338.434 150.678 304.028 123.555 265.458 126.574C195.072 126.287 170.364 183.977 170.364 243.676ZM779.999 470.705V269.22C779.712 225.02 774.541 200.05 737.48 200.05C715.358 200.337 685.193 210.669 685.193 268.072V471.566H532.066V1.72209H685.193L683.756 119.972C713.478 88.7515 755.668 72.5239 798.673 75.772C834.588 73.2628 869.858 86.2424 895.562 111.427C921.265 136.612 934.94 171.59 933.126 207.512V470.705H779.999ZM1088.55 318.013H1087.69C1087.98 335.706 1095.46 352.521 1108.41 364.593C1121.36 376.665 1138.66 382.955 1156.35 382.017C1177.91 383.256 1198.75 374.073 1212.37 357.334L1213.81 355.038H1357.46L1355.16 361.639C1325.57 445.448 1243.98 484.482 1157.79 484.482C1035.4 484.482 941.17 412.441 941.17 283.571C939.421 229.207 960.13 176.516 998.438 137.865C1036.75 99.2144 1089.28 78.0057 1143.71 79.2162C1295.98 78.6422 1363.2 164.46 1363.2 313.134V318.013H1088.55ZM1088.55 233.63L1213.81 233.056C1211.55 203.046 1186.48 179.874 1156.35 179.959C1122.94 176.571 1092.89 200.357 1088.55 233.63ZM1519.49 279.266L1517.77 278.405C1517.77 325.762 1526.1 367.379 1577.24 367.092C1604.83 366.051 1626.91 343.863 1627.8 316.291V311.699H1774.61V317.152C1760.82 422.486 1678.36 481.899 1574.94 481.899C1500.73 484.988 1430.76 447.309 1392.56 383.677C1354.35 320.046 1354.01 240.641 1391.68 176.687C1429.34 112.734 1498.98 74.4611 1573.21 76.9201C1673.19 76.346 1760.53 125.713 1770.01 232.769V237.936H1624.35V233.63C1624.32 221.433 1619.17 209.808 1610.16 201.574C1601.16 193.34 1589.11 189.248 1576.95 190.291C1527.25 190.578 1519.49 233.056 1519.49 279.266ZM2052.42 231.334L2210.43 470.131H2026.27L1951 337.243L1931.47 358.769V469.844H1778.63V0H1931.47V183.977L2015.36 83.2344H2190.89L2052.42 231.334ZM2282.25 313.134H2278.8C2279.41 331.354 2287.6 348.495 2301.4 360.427C2315.2 372.358 2333.35 377.999 2351.49 375.99C2373.05 377.228 2393.89 368.046 2407.51 351.307L2408.95 349.011H2552.59L2550.3 355.612C2520.99 439.42 2439.11 478.454 2352.93 478.454C2230.54 478.454 2136.59 406.414 2136.59 277.544C2134.78 223.41 2155.27 170.9 2193.28 132.276C2231.29 93.6517 2283.49 72.2937 2337.7 73.1889C2490.25 72.6148 2557.19 158.432 2557.19 307.106V313.134H2282.25ZM2282.25 228.751L2407.51 228.177C2405.25 198.167 2380.18 174.995 2350.05 175.079C2316.68 171.846 2286.73 195.558 2282.25 228.751ZM3065.41 198.328L3066.27 193.735C3065.57 183.583 3060 174.393 3051.33 169.052C3043.12 162.684 3033 159.249 3022.6 159.293C3001.92 159.293 2984.11 164.173 2984.11 183.69C2984.11 191.152 2989.85 195.17 2998.18 198.902C3005.33 201.655 3012.75 203.675 3020.31 204.929C3029.21 206.938 3039.84 208.66 3051.05 210.669C3075.64 214.357 3099.93 219.824 3123.73 227.029C3172.28 242.528 3217.39 271.803 3217.39 336.669C3217.96 446.309 3110.8 474.723 3022.03 475.01C2933.26 475.297 2831.56 439.994 2828.97 338.104V333.225H2975.49V337.817C2976.51 349.171 2982.24 359.58 2991.29 366.518C3001.59 373.744 3014.07 377.191 3026.63 376.277C3046.45 375.99 3070.58 368.815 3070.3 351.881C3070.01 334.947 3063.4 328.632 2995.02 316.865C2892.75 299.644 2844.2 267.785 2837.88 208.373C2823.86 204.48 2809.33 202.738 2794.78 203.207C2741.92 203.494 2713.19 233.63 2713.19 312.56V466.113H2560.35L2558.63 80.0772H2705.72V129.157C2725.96 91.9988 2765.7 69.6931 2808 71.7538C2822.56 71.6255 2837.07 73.5581 2851.09 77.4941H2854.83V131.166C2888.73 83.2344 2961.99 69.4577 3017.43 69.4577C3098.16 68.8836 3201.3 90.9838 3205.32 192.3V198.328H3065.41Z" fill="#C5C5C5"/>
</g>
<defs>
<clipPath id="clip0_42_2040">
<rect width="3217.39" height="500" fill="white"/>
</clipPath>
</defs>
</svg>
