<svg width="500" height="500" viewBox="0 0 500 500" fill="none" xmlns="http://www.w3.org/2000/svg">
<g clip-path="url(#clip0_129_1892)">
<path fill-rule="evenodd" clip-rule="evenodd" d="M250 500C388.071 500 500 388.071 500 250C500 111.929 388.071 0 250 0C111.929 0 0 111.929 0 250C0 388.071 111.929 500 250 500ZM254.812 315.918C215.096 315.918 201.805 283.441 201.965 250.163C201.965 216.886 215.737 184.728 254.972 184.888C276.471 183.205 295.65 198.324 299.011 219.605V221.525H391.574V218.965C384.047 155.77 339.047 118.493 257.855 118.013C166.573 117.053 107.32 169.849 107 248.883C107 323.118 160.648 381.194 256.413 381.833C343.211 381.833 392.214 328.557 392.535 277.521V275.121H299.652V276.881C294.367 299.759 283.638 316.238 254.812 315.918Z" fill="#F8F8F8"/>
</g>
<defs>
<clipPath id="clip0_129_1892">
<rect width="500" height="500" fill="white"/>
</clipPath>
</defs>
</svg>
