<svg width="2598" height="500" viewBox="0 0 2598 500" fill="none" xmlns="http://www.w3.org/2000/svg">
<g clip-path="url(#clip0_42_1999)">
<path d="M308.787 183.506C308.787 223.033 296.517 233.375 271.292 233.375H172.796V133.522H271.292C296.517 133.522 308.787 143.978 308.787 183.506ZM389.051 183.506C389.051 122.606 370.705 87.0992 337.567 73.77C319.01 68.1204 299.591 65.8631 280.235 67.1056H108.242C106.094 67.0903 103.964 67.5011 101.975 68.3143C99.9869 69.1275 98.1787 70.3271 96.6547 71.8438C95.1305 73.3604 93.9206 75.1643 93.0952 77.1514C92.2698 79.1386 91.8452 81.2696 91.8454 83.4221V378.963C91.8454 383.321 93.5726 387.5 96.6476 390.581C99.7226 393.663 103.893 395.394 108.242 395.394H155.713C160.041 395.364 164.182 393.619 167.232 390.54C170.282 387.463 171.995 383.3 171.995 378.963V299.907H280.121C299.484 301.175 318.916 298.878 337.452 293.126C370.589 279.913 388.935 244.292 388.935 183.506H389.051ZM461.86 41.7113V420.903C461.831 431.988 457.424 442.608 449.603 450.446C441.782 458.283 431.184 462.699 420.124 462.729H41.7379C30.6777 462.699 20.079 458.283 12.2583 450.446C4.43759 442.608 0.0307486 431.988 0.000488281 420.903V41.7113C0.0609423 30.6475 4.48142 20.0558 12.2988 12.2432C20.1163 4.43065 30.6976 0.0301461 41.7379 0H420.124C431.164 0.0301461 441.746 4.43065 449.563 12.2432C457.381 20.0558 461.8 30.6475 461.86 41.7113ZM590.169 133.637C590.138 129.299 588.396 125.148 585.325 122.092C582.253 119.035 578.101 117.32 573.771 117.32H526.301C521.992 117.35 517.869 119.078 514.821 122.132C511.774 125.185 510.049 129.318 510.019 133.637V378.963C510.019 383.3 511.731 387.463 514.781 390.54C517.831 393.619 521.973 395.364 526.301 395.394H573.771C578.12 395.394 582.291 393.663 585.366 390.581C588.441 387.5 590.169 383.321 590.169 378.963V133.637ZM752.416 180.863C772.988 180.594 793.556 181.668 813.989 184.081C826.488 185.115 830.731 180.749 830.731 170.176V139.726C830.985 137.485 830.795 135.214 830.171 133.046C829.548 130.878 828.503 128.855 827.096 127.093C825.689 125.331 823.949 123.865 821.976 122.78C820.002 121.694 817.834 121.01 815.595 120.767C794.878 116.045 773.656 113.922 752.416 114.447C643.831 114.447 637.753 214.761 635.689 233.375C634.371 249.09 634.371 264.888 635.689 280.601C636.951 299.332 643.831 399.071 752.416 399.531C773.649 400.036 794.864 397.953 815.595 393.325C817.851 393.099 820.038 392.421 822.027 391.332C824.017 390.244 825.769 388.767 827.18 386.989C828.591 385.211 829.631 383.168 830.241 380.981C830.852 378.793 831.017 376.504 830.731 374.251V343.801C830.731 332.31 825.227 328.633 812.844 330.013C792.777 332.21 772.601 333.244 752.416 333.114C727.305 332.31 714.692 317.832 712.055 278.764C711.138 264.261 711.138 249.717 712.055 235.214C714.692 196.146 727.305 182.013 752.416 180.863ZM1101.79 395.854H1041.14C1037.07 395.567 1033.12 394.311 1029.63 392.193C1026.14 390.075 1023.21 387.154 1021.07 383.674L952.273 290.254V378.963C952.213 383.443 950.402 387.722 947.228 390.881C944.056 394.039 939.774 395.824 935.303 395.854H889.438C884.966 395.824 880.684 394.039 877.512 390.881C874.338 387.722 872.527 383.443 872.467 378.963V41.4811C872.512 39.2931 872.987 37.1353 873.863 35.131C874.741 33.1265 876.003 31.315 877.58 29.7997C879.156 28.2844 881.013 27.095 883.048 26.2997C885.082 25.5044 887.255 25.1189 889.438 25.1646H935.303C937.487 25.1189 939.658 25.5044 941.692 26.2997C943.727 27.095 945.585 28.2844 947.162 29.7997C948.737 31.315 949.999 33.1265 950.877 35.131C951.753 37.1353 952.228 39.2931 952.273 41.4811V219.357L1028.06 125.478C1030 122.854 1032.55 120.748 1035.49 119.345C1038.43 117.942 1041.67 117.286 1044.92 117.435H1098.93C1111.08 117.435 1117.27 125.363 1108.67 137.428L1013.62 249.807L1111.31 377.928C1119.22 389.419 1112.23 395.279 1101.79 395.279" fill="#003359"/>
<path d="M1447.9 213.037V379.192C1447.9 383.531 1446.18 387.692 1443.14 390.771C1440.08 393.849 1435.94 395.593 1431.61 395.624H1384.26C1379.91 395.624 1375.74 393.893 1372.66 390.811C1369.59 387.729 1367.86 383.55 1367.86 379.192V215.335C1367.86 194.537 1365.11 181.897 1324.86 181.897C1309.23 181.971 1293.63 183.587 1278.31 186.724V378.962C1278.31 383.3 1276.6 387.462 1273.55 390.54C1270.5 393.619 1266.36 395.364 1262.03 395.394H1214.56C1210.21 395.394 1206.04 393.662 1202.96 390.581C1199.89 387.5 1198.16 383.321 1198.16 378.962V146.392C1197.7 142.647 1198.61 138.863 1200.72 135.737C1202.83 132.611 1205.99 130.355 1209.63 129.385C1245.48 119.412 1282.49 114.235 1319.7 113.987C1415.22 113.987 1447.9 150.183 1447.9 213.267V213.037ZM2593.72 373.561C2593.72 460.201 2558.18 499.958 2467.6 499.958C2438.25 500.447 2409 496.575 2380.79 488.468C2376.6 487.793 2372.81 485.59 2370.14 482.281C2367.47 478.972 2366.13 474.79 2366.35 470.543V442.85C2366.07 440.792 2366.32 438.697 2367.06 436.757C2367.79 434.817 2369 433.092 2370.57 431.735C2372.14 430.379 2374.03 429.435 2376.04 428.987C2378.07 428.542 2380.18 428.606 2382.17 429.176C2408.63 434.233 2435.5 436.811 2462.43 436.875C2506.69 436.875 2513.57 426.074 2513.57 390.912C2496.78 394.074 2479.75 395.765 2462.67 395.968C2381.25 395.968 2348 369.654 2348 296.46V133.407C2348 129.068 2349.71 124.907 2352.76 121.828C2355.81 118.75 2359.94 117.005 2364.28 116.975H2411.64C2413.78 116.975 2415.92 117.401 2417.89 118.228C2419.88 119.055 2421.68 120.267 2423.19 121.795C2424.71 123.322 2425.9 125.134 2426.71 127.127C2427.53 129.12 2427.93 131.254 2427.92 133.407V297.608C2427.92 323.807 2442.14 333.919 2474.36 333.919C2487.5 333.526 2500.56 331.56 2513.22 328.058V133.407C2513.22 129.068 2514.94 124.907 2517.99 121.828C2521.04 118.75 2525.18 117.005 2529.51 116.975H2576.97C2581.33 116.975 2585.5 118.706 2588.57 121.787C2591.65 124.869 2593.38 129.049 2593.38 133.407L2593.72 373.561ZM1892.67 293.126C1874.14 298.871 1854.71 301.168 1835.35 299.907H1727.21V378.962C1727.21 383.3 1725.5 387.462 1722.46 390.54C1719.4 393.619 1715.26 395.364 1710.93 395.394H1663.35C1659.01 395.364 1654.88 393.619 1651.83 390.54C1648.78 387.462 1647.07 383.3 1647.07 378.962V83.4221C1647.07 79.0946 1648.78 74.9443 1651.83 71.8844C1654.89 68.8244 1659.03 67.1056 1663.35 67.1056H1835.35C1854.7 65.8706 1874.11 68.1278 1892.67 73.7699C1925.81 87.0992 1944.15 122.606 1944.15 183.506C1944.15 244.407 1925.81 279.912 1892.67 293.126ZM1975.35 0H1596.96C1585.93 0.0303243 1575.36 4.43443 1567.56 12.2502C1559.76 20.066 1555.36 30.6581 1555.33 41.7112V420.903C1555.33 431.976 1559.72 442.597 1567.51 450.437C1575.32 458.279 1585.9 462.699 1596.96 462.729H1975.35C1986.4 462.699 1997 458.283 2004.82 450.446C2012.64 442.608 2017.06 431.987 2017.08 420.903V41.7112C2017.03 30.6475 2012.6 20.0558 2004.78 12.2432C1996.97 4.43065 1986.39 0.0301461 1975.35 0ZM1826.28 133.522H1727.79V233.375H1826.28C1851.51 233.375 1863.78 223.033 1863.78 183.506C1863.78 143.978 1851.51 133.522 1826.28 133.522ZM2218.65 336.561C2205.99 338.018 2193.24 338.824 2180.47 338.975C2149.86 338.975 2137.71 329.208 2137.71 304.503C2137.71 282.9 2152.5 274.857 2170.74 272.214C2186.65 270.521 2202.69 270.29 2218.65 271.525V336.561ZM2183.22 113.413C2155.64 113.281 2128.14 116.561 2101.36 123.18C2091.04 125.938 2086.92 131.568 2086.92 139.842V167.419C2086.92 178.91 2093.79 183.965 2105.25 182.357C2128.82 178.597 2152.61 176.522 2176.46 176.151C2213.04 176.151 2218.65 186.379 2218.65 206.143V217.633C2190.61 215.936 2162.47 217.324 2134.72 221.769C2090 230.962 2062.14 257.046 2062.14 310.822C2062.14 372.757 2097.81 399.071 2178.88 398.956C2213.46 399.639 2248.03 396.868 2282.07 390.683C2286.39 389.337 2290.11 386.553 2292.64 382.79C2295.17 379.029 2296.33 374.515 2295.94 370V210.508C2295.94 158.111 2286.65 113.413 2182.76 113.413" fill="#BA0C2F"/>
</g>
<defs>
<clipPath id="clip0_42_1999">
<rect width="2597.22" height="500" fill="white" transform="translate(0.000488281)"/>
</clipPath>
</defs>
</svg>
