<svg width="500" height="500" viewBox="0 0 500 500" fill="none" xmlns="http://www.w3.org/2000/svg">
<path d="M1 256.164C1 346.155 46.1934 426.756 125.826 466.194C200.654 503.269 300.376 503.269 375.416 466.194C449.429 429.634 500 346.185 500 256.164C500 118.497 390.158 6 250.5 6C110.177 6 1 117.618 1 256.164Z" fill="#157946"/>
<path d="M250.591 71.7254C225.517 156.759 150.78 281.381 96.2586 342.486H225.517L225.819 379.51C225.517 400.512 208.832 422.298 184.543 421.997C150.78 421.604 108.569 406.004 83.0733 362.703C64.4871 331.11 51 306.215 51 256.336C51 147.314 138.802 57 250.5 57C360.961 57 450 149.969 450 256.336C450 306.245 426.707 349.396 419.013 361.828C391.737 406.004 350.22 421.604 318.056 421.997C295.879 422.268 275.453 406.004 275.453 379.39V342.455H406.703C350.19 281.381 275.453 156.789 250.591 71.7254Z" fill="white"/>
</svg>
