<svg width="3147" height="500" viewBox="0 0 3147 500" fill="none" xmlns="http://www.w3.org/2000/svg">
<g clip-path="url(#clip0_42_2029)">
<path fill-rule="evenodd" clip-rule="evenodd" d="M0 9.58963L2514.31 9.55859V490.1L0 490.131V9.58963ZM1787.32 95.9902C1808.95 95.9902 1822.36 103.966 1842.59 129.818L1993.05 345.106C2001.06 356.371 2000.28 374.34 1986.47 386.009C1974.24 396.344 1952.61 397.275 1940.88 381.789L1904.88 331.978H1667.9L1631.93 382.72C1619.24 397.772 1603.72 397.772 1589.63 388.368C1574.98 378.592 1571.26 359.692 1580.22 346.533L1732.08 129.849C1751.38 103.035 1766.65 95.9902 1787.32 95.9902ZM1796.32 175.656C1792.35 169.853 1790.89 169.294 1786.67 169.294C1781.95 169.294 1780.09 171.653 1776.89 175.936C1774.58 179.023 1761.29 198.429 1747.22 218.98L1747.21 218.998L1747.19 219.018L1747.19 219.02C1729.73 244.522 1711.07 271.771 1710.69 271.771H1863.04C1862.73 271.771 1804.73 188.101 1796.32 175.656ZM977.873 96.3627H761.126C731.333 96.3627 680.405 126.187 680.498 185.525C680.498 238.284 721.092 277.171 773.478 277.171H958.135C968.531 277.171 982.652 289.026 982.652 304.481C982.652 320.681 966.545 331.513 955.621 331.513H682.36C682.36 331.513 678.729 393.985 744.243 393.985H964.714C986.19 393.985 1047.92 369.22 1047.92 299.516C1047.92 245.826 994.787 214.729 957.452 214.729H769.009C759.512 214.729 744.492 205.326 744.492 185.556C744.492 168.208 756.75 158.246 769.94 158.246H1036.59C1036.59 158.246 1031.66 96.3627 977.873 96.3627ZM2150.33 95.9591H2374.15C2408.08 95.9591 2460.68 123.673 2460.68 189.963V194.184C2460.68 229.47 2438.58 260.474 2407.55 275.495C2407.55 275.495 2409.78 278.878 2457.85 344.113C2464.09 352.554 2464.43 372.789 2450.81 385.016C2437.81 396.685 2416.14 398.144 2405.22 385.482C2394.17 372.701 2381.86 356.993 2357.55 325.957C2348.28 314.113 2337.25 300.035 2323.88 283.036H2236.42C2211.5 283.036 2177.67 263.267 2177.67 219.57H2366.68C2376.95 219.136 2393.4 209.298 2393.4 189.994C2393.4 172.149 2377.57 159.891 2366.58 159.891H2157.84L2158 357.737C2158.03 379.337 2141.46 393.892 2123.61 393.892C2106.67 393.892 2089.78 378.871 2089.78 358.637V157.066C2089.72 123.177 2125.44 95.9591 2150.33 95.9591ZM1451.74 96.4557H1227.92C1203 96.4557 1167.28 123.673 1167.31 157.563V359.133C1167.31 379.368 1184.19 394.389 1201.14 394.389C1218.98 394.389 1235.55 379.833 1235.52 358.233L1235.4 160.356L1444.11 160.387C1455.09 160.387 1470.92 172.646 1470.92 190.491C1470.92 209.794 1453.95 218.701 1443.67 219.136H1256.56C1256.56 262.864 1288.53 283.067 1313.45 283.067H1454.04C1469.09 281.174 1485.14 275.991 1485.14 275.991C1516.17 260.971 1538.27 229.998 1538.27 194.68V190.46C1538.27 124.201 1485.66 96.4557 1451.74 96.4557Z" fill="#C5C5C5"/>
<path fill-rule="evenodd" clip-rule="evenodd" d="M2762.37 471.51C2680.56 431.103 2634.13 348.52 2634.13 256.316C2634.13 114.363 2746.29 0 2890.45 0C3033.92 0 3146.76 115.263 3146.76 256.316C3146.76 348.551 3094.81 434.051 3018.78 471.51C2941.69 509.497 2839.24 509.497 2762.37 471.51ZM2731.83 344.92C2787.91 282.074 2864.78 153.901 2890.57 66.4452C2916.14 153.932 2993.02 282.074 3051.15 344.889H2916.14V382.875C2916.14 410.248 2937.15 426.975 2959.97 426.696C2993.05 426.293 3035.75 410.248 3063.81 364.813C3071.72 352.027 3095.68 307.647 3095.68 256.315C3095.68 146.918 3004.1 51.3003 2890.48 51.3003C2775.59 51.3003 2685.28 144.187 2685.28 256.315C2685.28 307.616 2699.15 333.219 2718.27 365.713C2744.49 410.248 2787.91 426.293 2822.64 426.696C2847.62 427.006 2864.78 404.599 2865.09 382.999L2864.78 344.92H2731.83Z" fill="#C5C5C5"/>
</g>
<defs>
<clipPath id="clip0_42_2029">
<rect width="3146.76" height="500" fill="white"/>
</clipPath>
</defs>
</svg>
