<svg width="3147" height="500" viewBox="0 0 3147 500" fill="none" xmlns="http://www.w3.org/2000/svg">
<g clip-path="url(#clip0_42_2007)">
<path d="M-0.000488281 9.58963L2514.31 9.55859V490.1L-0.000488281 490.131V9.58963Z" fill="#EC1B24"/>
<path d="M1787.32 95.9902C1808.95 95.9902 1822.36 103.966 1842.59 129.818L1993.05 345.106C2001.05 356.371 2000.28 374.34 1986.47 386.009C1974.24 396.344 1952.61 397.275 1940.88 381.789L1904.88 331.978H1667.9L1631.93 382.72C1619.24 397.772 1603.72 397.772 1589.63 388.368C1574.98 378.592 1571.26 359.692 1580.22 346.533L1732.08 129.849C1751.38 103.035 1766.65 95.9902 1787.32 95.9902ZM1796.32 175.656C1792.35 169.853 1790.89 169.294 1786.67 169.294C1781.95 169.294 1780.09 171.653 1776.89 175.936C1771.71 182.856 1711.38 271.771 1710.69 271.771H1863.04C1862.73 271.771 1804.73 188.101 1796.32 175.656Z" fill="white"/>
<path d="M761.125 96.3628H977.872C1031.65 96.3628 1036.59 158.246 1036.59 158.246H769.939C756.749 158.246 744.491 168.208 744.491 185.557C744.491 205.326 759.512 214.729 769.008 214.729H957.451C994.786 214.729 1047.92 245.826 1047.92 299.516C1047.92 369.22 986.189 393.986 964.713 393.986H744.242C678.728 393.986 682.359 331.513 682.359 331.513H955.62C966.544 331.513 982.651 320.682 982.651 304.481C982.651 289.026 968.53 277.171 958.134 277.171H773.477C721.091 277.171 680.497 238.284 680.497 185.525C680.404 126.187 731.332 96.3628 761.125 96.3628Z" fill="white"/>
<path d="M2150.33 95.9595H2374.15C2408.08 95.9595 2460.68 123.673 2460.68 189.964V194.184C2460.68 229.471 2438.58 260.474 2407.55 275.495C2407.55 275.495 2409.78 278.878 2457.85 344.113C2464.09 352.554 2464.43 372.789 2450.81 385.017C2437.81 396.686 2416.14 398.144 2405.22 385.482C2389.95 367.823 2372.29 344.578 2323.88 283.037H2236.42C2211.5 283.037 2177.67 263.268 2177.67 219.571H2366.67C2376.95 219.136 2393.4 209.298 2393.4 189.995C2393.4 172.15 2377.57 159.891 2366.58 159.891H2157.84L2158 357.737C2158.03 379.337 2141.46 393.893 2123.61 393.893C2106.67 393.893 2089.78 378.872 2089.78 358.637V157.067C2089.72 123.177 2125.44 95.9595 2150.33 95.9595Z" fill="white"/>
<path d="M1227.92 96.4561H1451.74C1485.66 96.4561 1538.27 124.201 1538.27 190.46V194.681C1538.27 229.998 1516.17 260.971 1485.13 275.992C1485.13 275.992 1469.09 281.175 1454.04 283.068H1313.45C1288.53 283.068 1256.56 262.864 1256.56 219.136H1443.67C1453.94 218.702 1470.92 209.795 1470.92 190.491C1470.92 172.646 1455.09 160.388 1444.11 160.388L1235.4 160.356L1235.52 358.234C1235.55 379.834 1218.98 394.389 1201.14 394.389C1184.19 394.389 1167.31 379.368 1167.31 359.134V157.563C1167.28 123.673 1203 96.4561 1227.92 96.4561Z" fill="white"/>
<path d="M2634.13 256.316C2634.13 348.52 2680.56 431.103 2762.37 471.51C2839.24 509.497 2941.69 509.497 3018.78 471.51C3094.81 434.051 3146.76 348.551 3146.76 256.316C3146.76 115.263 3033.92 0 2890.45 0C2746.29 0 2634.13 114.363 2634.13 256.316Z" fill="#157946"/>
<path d="M2890.57 66.4452C2864.78 153.901 2787.91 282.074 2731.83 344.92H2864.78L2865.09 382.999C2864.78 404.599 2847.62 427.006 2822.64 426.696C2787.91 426.293 2744.49 410.248 2718.27 365.713C2699.15 333.219 2685.28 307.616 2685.28 256.315C2685.28 144.187 2775.59 51.3003 2890.48 51.3003C3004.1 51.3003 3095.68 146.918 3095.68 256.315C3095.68 307.647 3071.72 352.027 3063.81 364.813C3035.75 410.248 2993.05 426.293 2959.96 426.696C2937.15 426.975 2916.14 410.248 2916.14 382.875V344.889H3051.14C2993.02 282.074 2916.14 153.932 2890.57 66.4452Z" fill="white"/>
</g>
<defs>
<clipPath id="clip0_42_2007">
<rect width="3146.76" height="500" fill="white" transform="translate(-0.000488281)"/>
</clipPath>
</defs>
</svg>
