<svg width="500" height="500" viewBox="0 0 500 500" fill="none" xmlns="http://www.w3.org/2000/svg">
<path fill-rule="evenodd" clip-rule="evenodd" d="M250.5 494C388.295 494 500 384.757 500 250C500 115.243 388.295 6 250.5 6C112.705 6 1 115.243 1 250C1 384.757 112.705 494 250.5 494ZM96.2586 340.486C150.78 279.381 225.517 154.758 250.591 69.7254C275.453 154.789 350.19 279.381 406.703 340.455H275.453V377.39C275.453 404.004 295.879 420.268 318.056 419.997C350.22 419.604 391.737 404.004 419.013 359.828C426.707 347.396 450 304.245 450 254.336C450 147.969 360.961 55 250.5 55C138.802 55 51 145.314 51 254.336C51 304.215 64.4871 329.11 83.0733 360.703C108.569 404.004 150.78 419.604 184.543 419.997C208.832 420.298 225.517 398.512 225.819 377.51L225.517 340.486H96.2586Z" fill="#F8F8F8"/>
</svg>
