<svg width="4618" height="500" viewBox="0 0 4618 500" fill="none" xmlns="http://www.w3.org/2000/svg">
<path d="M548.383 460.324H433.795L352.942 209.059L275.059 460.324H158.971L7.61816 20.9413H134.001L223.648 288.412L305.971 20.9413H402.971L486.736 288.412L571.971 20.9413H696.912L548.383 460.324ZM1825.5 20.9119V357.471H1963.62V460.294H1700.59V20.9119H1825.5ZM2454.5 460.324H2339.88L2259.03 209.059L2182.62 460.324H2065.03L1913.68 20.9413H2040.06L2129.71 288.412L2212 20.9413H2308.97L2392.79 288.412L2479.47 20.9413H2604.38L2454.5 460.324ZM3264.27 20.9119C3315.71 20.9119 3334.77 25.2943 3358.29 37.059C3362.68 40.0296 3374.47 45.9119 3386.21 56.1766C3402.38 70.8825 3422.94 101.735 3422.94 154.647C3422.94 172.294 3421.47 213.412 3390.62 250.177C3386.21 254.588 3378.85 264.882 3365.59 272.235C3361.21 275.177 3355.27 278.088 3343.53 283.941L3472.85 460.294H3325.88L3220.06 308.941V460.294H3102.5V20.9119H3264.27ZM3220.18 214.912H3240.71C3253.94 214.912 3299.5 217.853 3299.5 166.441C3299.5 120.882 3259.79 120.882 3246.59 120.882H3218.68V214.912H3220.18ZM3774.24 20.9119V122.294H3683.09V460.294H3559.68V122.294H3467.09V20.9119H3774.24ZM3952.06 20.9119V185.5H4093.15V20.9119H4218.06V460.294H4093.15V286.882H3952.06V460.294H3827.15V20.9119H3952.06ZM4535.53 141.441C4528.18 135.588 4520.82 129.735 4513.47 125.294C4509.09 122.353 4476.74 103.235 4448.82 103.235C4415.06 103.235 4403.27 123.794 4403.27 139.941C4403.27 151.706 4410.59 160.559 4417.94 166.412C4428.27 172.265 4445.88 178.118 4470.85 184.059C4478.21 185.5 4525.27 195.824 4554.68 219.324C4573.74 234.03 4595.77 263.382 4595.77 317.794C4595.77 357.5 4585.47 391.265 4559.03 420.677C4525.27 458.882 4481.18 472.088 4432.65 472.088C4348.85 472.088 4300.38 436.824 4273.94 417.735L4316.53 326.559C4320.91 330.971 4326.85 335.412 4332.71 338.324C4370.94 364.735 4400.32 375.03 4420.88 375.03C4450.27 375.03 4475.29 358.882 4475.29 327.971C4475.29 317.677 4472.32 308.912 4466.47 301.559C4453.24 285.412 4431.21 282.441 4413.53 276.559C4395.88 272.147 4365.06 264.794 4348.88 256C4325.35 244.235 4284.24 217.794 4284.24 151.677C4284.24 120.824 4291.59 98.7354 4295.94 88.4413C4312.15 53.206 4350.38 10.5884 4438.56 10.5884C4491.47 10.5884 4528.21 26.7648 4547.29 35.559C4559 41.4707 4569.35 48.8237 4581.06 56.1766L4535.53 141.441ZM1421.35 10.6472C1293.47 10.6472 1189.12 114.971 1189.12 242.853C1189.12 370.735 1293.47 475.088 1421.35 475.088C1549.21 475.088 1653.56 370.706 1653.56 242.853C1653.56 113.5 1549.21 10.6472 1421.35 10.6472ZM1421.35 350.147C1361.09 350.147 1314.06 301.618 1314.06 242.853C1314.06 182.588 1362.56 135.618 1421.35 135.618C1480.15 135.618 1528.59 184.088 1528.59 242.853C1530.09 301.588 1481.59 350.147 1421.35 350.147ZM2829.27 10.6472C2701.35 10.6472 2597.03 114.971 2597.03 242.853C2597.03 370.735 2701.38 475.088 2829.27 475.088C2957.12 475.088 3061.47 370.706 3061.47 242.853C3060 113.5 2957.12 10.6472 2829.27 10.6472ZM2829.27 350.147C2769 350.147 2721.97 301.618 2721.97 242.853C2721.97 182.588 2770.47 135.618 2829.27 135.618C2889.5 135.618 2936.5 184.088 2936.5 242.853C2936.56 301.588 2889.5 350.147 2829.27 350.147ZM918.706 10.6472C790.824 10.6472 686.471 114.971 686.471 242.853C686.471 370.735 790.824 475.088 918.706 475.088C1046.59 475.088 1150.91 369.206 1150.91 241.412C1150.91 113.53 1046.59 10.6472 918.706 10.6472ZM918.706 350.147C858.442 350.147 811.442 301.618 811.442 242.853C811.442 182.588 859.942 135.618 918.706 135.618C977.501 135.618 1025.97 184.088 1025.97 242.853C1027.47 301.588 978.971 350.147 918.706 350.147Z" fill="#F8F8F8"/>
</svg>
