<svg width="272" height="40" viewBox="0 0 272 40" fill="none" xmlns="http://www.w3.org/2000/svg">
<path d="M17.9075 14.8905C17.4533 12.0033 15.7502 10.5596 12.798 10.5596C11.695 10.5596 10.7705 10.8192 10.0243 11.3382C9.27817 11.8249 8.66179 12.4737 8.17517 13.2847C7.721 14.0633 7.39658 14.9392 7.20194 15.9124C7.00729 16.8532 6.90997 17.794 6.90997 18.7348C6.90997 19.6432 7.00729 20.5677 7.20194 21.5085C7.39658 22.4493 7.70477 23.309 8.12651 24.0876C8.58069 24.8338 9.18085 25.4501 9.92699 25.9368C10.6731 26.4234 11.5815 26.6667 12.6521 26.6667C14.3065 26.6667 15.5718 26.2125 16.4477 25.3042C17.356 24.3634 17.9237 23.1144 18.1508 21.5572H24.8175C24.3633 24.8986 23.0657 27.4453 20.9245 29.1971C18.7834 30.9489 16.0422 31.8248 12.7007 31.8248C10.8191 31.8248 9.08352 31.5166 7.49391 30.9003C5.93673 30.2514 4.60664 29.3593 3.50364 28.2239C2.40065 27.0884 1.54095 25.7421 0.924573 24.1849C0.308191 22.5953 0 20.8597 0 18.9781C0 17.0317 0.27575 15.2312 0.82725 13.5767C1.41119 11.8897 2.25466 10.4461 3.35766 9.24578C4.46066 8.01302 5.80697 7.056 7.39658 6.37474C8.9862 5.69348 10.8029 5.35284 12.8467 5.35284C14.339 5.35284 15.7664 5.54749 17.1289 5.93678C18.5239 6.32608 19.7567 6.92624 20.8272 7.73727C21.9302 8.51586 22.8224 9.50531 23.5036 10.7056C24.1849 11.8735 24.5742 13.2685 24.6715 14.8905H17.9075Z" fill="#434343"/>
<path d="M75.4877 15.9124C75.1633 14.1606 74.5794 12.8305 73.7359 11.9222C72.9249 11.0138 71.6759 10.5596 69.989 10.5596C68.886 10.5596 67.9614 10.7543 67.2152 11.1436C66.5015 11.5004 65.9176 11.9546 65.4634 12.5061C65.0417 13.0576 64.7335 13.6416 64.5389 14.2579C64.3766 14.8743 64.2793 15.4258 64.2469 15.9124H75.4877ZM64.2469 20.292C64.3442 22.5304 64.9119 24.1525 65.95 25.1582C66.9882 26.1638 68.4805 26.6667 70.4269 26.6667C71.8219 26.6667 73.0222 26.3261 74.0279 25.6448C75.0336 24.9311 75.6499 24.1849 75.877 23.4063H81.9598C80.9865 26.4234 79.4942 28.5807 77.4829 29.8784C75.4715 31.176 73.0384 31.8248 70.1836 31.8248C68.2047 31.8248 66.4204 31.5166 64.8308 30.9003C63.2412 30.2514 61.8949 29.3431 60.7919 28.1752C59.6889 27.0073 58.8292 25.6123 58.2128 23.9903C57.6289 22.3682 57.3369 20.584 57.3369 18.6375C57.3369 16.7559 57.6451 15.0041 58.2615 13.382C58.8779 11.76 59.7538 10.365 60.8892 9.19712C62.0247 7.9968 63.371 7.056 64.9281 6.37474C66.5178 5.69348 68.2696 5.35284 70.1836 5.35284C72.3247 5.35284 74.1901 5.77458 75.7797 6.61805C77.3693 7.42908 78.667 8.53208 79.6727 9.92705C80.7108 11.322 81.4569 12.9116 81.9111 14.6959C82.3653 16.4802 82.5275 18.3455 82.3977 20.292H64.2469Z" fill="#434343"/>
<path d="M86.7415 13.7713C86.8388 12.1493 87.2443 10.803 87.958 9.7324C88.6717 8.66184 89.5801 7.80215 90.6831 7.15333C91.7861 6.50451 93.0188 6.05033 94.3814 5.7908C95.7763 5.49883 97.1713 5.35284 98.5663 5.35284C99.8315 5.35284 101.113 5.45017 102.411 5.64481C103.708 5.80702 104.892 6.14765 105.963 6.66671C107.033 7.18577 107.909 7.91569 108.591 8.85649C109.272 9.76484 109.612 10.9814 109.612 12.5061V25.5961C109.612 26.7316 109.677 27.8183 109.807 28.8565C109.937 29.8946 110.164 30.6732 110.488 31.1922H103.481C103.351 30.8029 103.238 30.4136 103.14 30.0243C103.076 29.6026 103.027 29.1809 102.994 28.7591C101.891 29.8946 100.594 30.6894 99.1016 31.1436C97.6093 31.5977 96.0845 31.8248 94.5274 31.8248C93.327 31.8248 92.2078 31.6788 91.1697 31.3869C90.1316 31.0949 89.2232 30.6407 88.4446 30.0243C87.6661 29.408 87.0497 28.6294 86.5955 27.6886C86.1738 26.7478 85.9629 25.6286 85.9629 24.3309C85.9629 22.9035 86.2062 21.7356 86.6928 20.8273C87.2119 19.8865 87.8607 19.1403 88.6393 18.5888C89.4503 18.0373 90.3587 17.6318 91.3643 17.3723C92.4025 17.0803 93.4406 16.8532 94.4787 16.691C95.5168 16.5288 96.5387 16.3991 97.5444 16.3017C98.5501 16.2044 99.4422 16.0584 100.221 15.8638C100.999 15.6691 101.616 15.3934 102.07 15.0365C102.524 14.6472 102.735 14.0957 102.703 13.382C102.703 12.6359 102.573 12.0519 102.313 11.6302C102.086 11.176 101.762 10.8354 101.34 10.6083C100.951 10.3488 100.48 10.1866 99.9288 10.1217C99.4097 10.0244 98.842 9.97571 98.2256 9.97571C96.8631 9.97571 95.7926 10.2677 95.014 10.8516C94.2354 11.4356 93.7812 12.4088 93.6514 13.7713H86.7415ZM102.703 18.8808C102.411 19.1403 102.037 19.3512 101.583 19.5134C101.162 19.6432 100.691 19.7567 100.172 19.854C99.6855 19.9514 99.1664 20.0325 98.6149 20.0973C98.0634 20.1622 97.5119 20.2433 96.9604 20.3407C96.4414 20.438 95.9223 20.5677 95.4033 20.73C94.9166 20.8922 94.4787 21.1192 94.0894 21.4112C93.7325 21.6707 93.4406 22.0114 93.2135 22.4331C92.9864 22.8548 92.8729 23.3901 92.8729 24.0389C92.8729 24.6553 92.9864 25.1744 93.2135 25.5961C93.4406 26.0179 93.7488 26.3585 94.1381 26.618C94.5274 26.8451 94.9815 27.0073 95.5006 27.1046C96.0196 27.202 96.5549 27.2506 97.1064 27.2506C98.469 27.2506 99.5233 27.0235 100.269 26.5694C101.016 26.1152 101.567 25.5799 101.924 24.9635C102.281 24.3147 102.492 23.6659 102.557 23.0171C102.654 22.3682 102.703 21.8492 102.703 21.4599V18.8808Z" fill="#434343"/>
<path d="M127.536 26.6667C128.671 26.6667 129.612 26.4396 130.358 25.9854C131.137 25.5312 131.753 24.9473 132.207 24.2336C132.694 23.4874 133.034 22.6278 133.229 21.6545C133.424 20.6813 133.521 19.6918 133.521 18.6862C133.521 17.6805 133.408 16.691 133.18 15.7178C132.986 14.7446 132.645 13.8849 132.159 13.1387C131.672 12.3601 131.039 11.7438 130.261 11.2896C129.515 10.803 128.59 10.5596 127.487 10.5596C126.352 10.5596 125.395 10.803 124.616 11.2896C123.87 11.7438 123.253 12.3439 122.767 13.0901C122.313 13.8362 121.988 14.6959 121.794 15.6691C121.599 16.6424 121.502 17.648 121.502 18.6862C121.502 19.6918 121.599 20.6813 121.794 21.6545C122.021 22.6278 122.361 23.4874 122.815 24.2336C123.302 24.9473 123.935 25.5312 124.713 25.9854C125.492 26.4396 126.433 26.6667 127.536 26.6667ZM114.835 6.03411H121.404V9.24578H121.502C122.345 7.88325 123.416 6.8938 124.713 6.27742C126.011 5.66104 127.438 5.35284 128.996 5.35284C130.974 5.35284 132.678 5.72592 134.105 6.47206C135.532 7.21821 136.717 8.20767 137.657 9.44043C138.598 10.6732 139.296 12.1168 139.75 13.7713C140.204 15.3934 140.431 17.0965 140.431 18.8808C140.431 20.5677 140.204 22.1898 139.75 23.747C139.296 25.3042 138.598 26.6829 137.657 27.8832C136.749 29.0835 135.597 30.0406 134.202 30.7543C132.84 31.468 131.234 31.8248 129.385 31.8248C127.828 31.8248 126.384 31.5166 125.054 30.9003C123.756 30.2514 122.686 29.3106 121.842 28.0779H121.745V40H114.835V6.03411Z" fill="#434343"/>
<rect x="144.516" y="4.51575" width="27.4843" height="27.4843" rx="13.7421" fill="#434343"/>
<path d="M152.886 24.7333V10.9813H158.822C159.843 10.9813 160.736 11.167 161.502 11.5386C162.267 11.9102 162.862 12.4451 163.288 13.1435C163.713 13.8418 163.926 14.6789 163.926 15.6548C163.926 16.6397 163.706 17.4701 163.268 18.146C162.833 18.822 162.222 19.3323 161.434 19.677C160.651 20.0217 159.736 20.1941 158.688 20.1941H155.143V17.2933H157.936C158.375 17.2933 158.748 17.2395 159.057 17.1321C159.371 17.0202 159.61 16.8434 159.776 16.6016C159.946 16.3599 160.031 16.0443 160.031 15.6548C160.031 15.2609 159.946 14.9408 159.776 14.6946C159.61 14.4439 159.371 14.2604 159.057 14.144C158.748 14.0231 158.375 13.9627 157.936 13.9627H156.62V24.7333H152.886ZM160.944 18.4214L164.382 24.7333H160.326L156.969 18.4214H160.944Z" fill="#F8F8F8"/>
<path d="M30.6729 5.67859H37.1516V15.802H46.4731V5.67859H52.9518V32.0587H46.4731V20.679H37.1516V32.0587H30.6729V5.67859Z" fill="#434343"/>
<rect x="180" y="5.5" width="92" height="29" rx="8" fill="#C34534"/>
<path d="M192.526 28.5H188.571L194.597 11.0455H199.352L205.369 28.5H201.415L197.043 15.0341H196.906L192.526 28.5ZM192.278 21.6392H201.619V24.5199H192.278V21.6392ZM211.616 28.7131C210.622 28.7131 209.722 28.4574 208.915 27.946C208.114 27.429 207.477 26.6705 207.006 25.6705C206.54 24.6648 206.307 23.4318 206.307 21.9716C206.307 20.4716 206.548 19.2244 207.031 18.2301C207.514 17.2301 208.156 16.483 208.957 15.9886C209.764 15.4886 210.648 15.2386 211.608 15.2386C212.341 15.2386 212.952 15.3636 213.44 15.6136C213.935 15.858 214.332 16.1648 214.634 16.5341C214.94 16.8977 215.173 17.2557 215.332 17.608H215.443V11.0455H219.065V28.5H215.486V26.4034H215.332C215.162 26.767 214.92 27.1278 214.608 27.4858C214.301 27.8381 213.901 28.1307 213.406 28.3636C212.918 28.5966 212.321 28.7131 211.616 28.7131ZM212.767 25.8239C213.352 25.8239 213.847 25.6648 214.25 25.3466C214.659 25.0227 214.972 24.571 215.188 23.9915C215.409 23.4119 215.52 22.733 215.52 21.9545C215.52 21.1761 215.412 20.5 215.196 19.9261C214.98 19.3523 214.668 18.9091 214.259 18.5966C213.849 18.2841 213.352 18.1278 212.767 18.1278C212.17 18.1278 211.668 18.2898 211.259 18.6136C210.849 18.9375 210.54 19.3864 210.33 19.9602C210.119 20.5341 210.014 21.1989 210.014 21.9545C210.014 22.7159 210.119 23.3892 210.33 23.9744C210.545 24.554 210.855 25.0085 211.259 25.3381C211.668 25.6619 212.17 25.8239 212.767 25.8239ZM222.05 28.5V15.4091H225.511V17.7188H225.664C225.937 16.9517 226.391 16.3466 227.028 15.9034C227.664 15.4602 228.425 15.2386 229.312 15.2386C230.21 15.2386 230.974 15.4631 231.604 15.9119C232.235 16.3551 232.656 16.9574 232.866 17.7188H233.002C233.269 16.9688 233.752 16.3693 234.451 15.9205C235.156 15.4659 235.988 15.2386 236.948 15.2386C238.17 15.2386 239.161 15.6278 239.923 16.4062C240.69 17.179 241.073 18.2756 241.073 19.696V28.5H237.451V20.4119C237.451 19.6847 237.258 19.1392 236.871 18.7756C236.485 18.4119 236.002 18.2301 235.423 18.2301C234.763 18.2301 234.249 18.4403 233.88 18.8608C233.511 19.2756 233.326 19.8239 233.326 20.5057V28.5H229.806V20.3352C229.806 19.6932 229.621 19.1818 229.252 18.8011C228.888 18.4205 228.408 18.2301 227.812 18.2301C227.408 18.2301 227.045 18.3324 226.721 18.5369C226.403 18.7358 226.15 19.017 225.962 19.3807C225.775 19.7386 225.681 20.1591 225.681 20.642V28.5H222.05ZM243.941 28.5V15.4091H247.572V28.5H243.941ZM245.765 13.7216C245.225 13.7216 244.762 13.5426 244.376 13.1847C243.995 12.821 243.805 12.3864 243.805 11.8807C243.805 11.3807 243.995 10.9517 244.376 10.5938C244.762 10.2301 245.225 10.0483 245.765 10.0483C246.305 10.0483 246.765 10.2301 247.146 10.5938C247.532 10.9517 247.725 11.3807 247.725 11.8807C247.725 12.3864 247.532 12.821 247.146 13.1847C246.765 13.5426 246.305 13.7216 245.765 13.7216ZM254.111 20.9318V28.5H250.48V15.4091H253.94V17.7188H254.094C254.384 16.9574 254.869 16.3551 255.551 15.9119C256.233 15.4631 257.06 15.2386 258.031 15.2386C258.94 15.2386 259.733 15.4375 260.409 15.8352C261.085 16.233 261.611 16.8011 261.986 17.5398C262.361 18.2727 262.548 19.1477 262.548 20.1648V28.5H258.918V20.8125C258.923 20.0114 258.719 19.3864 258.304 18.9375C257.889 18.483 257.318 18.2557 256.591 18.2557C256.102 18.2557 255.67 18.3608 255.295 18.571C254.926 18.7812 254.636 19.0881 254.426 19.4915C254.222 19.8892 254.116 20.3693 254.111 20.9318Z" fill="#F8F8F8"/>
</svg>
