<svg width="242" height="73" viewBox="0 0 242 73" fill="none" xmlns="http://www.w3.org/2000/svg">
<path fill-rule="evenodd" clip-rule="evenodd" d="M0 21.0714C0 9.71014 9.21014 0.5 20.5714 0.5H221.143C232.504 0.5 241.714 9.71014 241.714 21.0714V51.9286C241.714 63.2899 232.504 72.5 221.143 72.5H20.5714C9.21014 72.5 0 63.2899 0 51.9286V21.0714ZM33.3097 29.9307C32.7257 26.2185 30.5359 24.3624 26.7403 24.3624C25.3222 24.3624 24.1335 24.6961 23.1741 25.3635C22.2148 25.9891 21.4223 26.8233 20.7966 27.8661C20.2127 28.8671 19.7956 29.9933 19.5453 31.2446C19.2951 32.4542 19.17 33.6638 19.17 34.8733C19.17 36.0412 19.2951 37.23 19.5453 38.4396C19.7956 39.6492 20.1919 40.7545 20.7341 41.7555C21.318 42.7148 22.0897 43.5073 23.049 44.133C24.0083 44.7586 25.1762 45.0715 26.5526 45.0715C28.6798 45.0715 30.3065 44.4875 31.4327 43.3196C32.6006 42.11 33.3305 40.5042 33.6225 38.5021H42.1939C41.61 42.7983 39.9416 46.0725 37.1887 48.3248C34.4358 50.5772 30.9113 51.7034 26.6152 51.7034C24.196 51.7034 21.9645 51.3071 19.9207 50.5146C17.9187 49.6804 16.2085 48.5334 14.7904 47.0735C13.3723 45.6137 12.2669 43.8827 11.4745 41.8806C10.682 39.8368 10.2857 37.6054 10.2857 35.1862C10.2857 32.6836 10.6402 30.3687 11.3493 28.2415C12.1001 26.0725 13.1846 24.2164 14.6027 22.6732C16.0208 21.0882 17.7518 19.8577 19.7956 18.9818C21.8394 18.1059 24.1752 17.668 26.8029 17.668C28.7216 17.668 30.5568 17.9182 32.3086 18.4187C34.1022 18.9193 35.6871 19.6909 37.0636 20.7336C38.4817 21.7347 39.6287 23.0068 40.5047 24.5501C41.3806 26.0517 41.8811 27.8452 42.0062 29.9307H33.3097ZM105.089 26.1142C106.173 27.2821 106.924 28.9922 107.341 31.2446H92.8885C92.9302 30.6189 93.0554 29.9099 93.2639 29.1174C93.5142 28.3249 93.9104 27.5741 94.4527 26.865C95.0366 26.1559 95.7874 25.572 96.705 25.1132C97.6643 24.6127 98.8531 24.3624 100.271 24.3624C102.44 24.3624 104.046 24.9464 105.089 26.1142ZM95.0783 43.1319C93.7436 41.8389 93.0137 39.7534 92.8885 36.8754H116.225C116.392 34.3728 116.184 31.9745 115.6 29.6804C115.016 27.3864 114.056 25.3426 112.722 23.5491C111.429 21.7555 109.76 20.3374 107.716 19.2946C105.673 18.2102 103.274 17.668 100.521 17.668C98.0606 17.668 95.8082 18.1059 93.7644 18.9818C91.7624 19.8577 90.0314 21.0673 88.5715 22.6106C87.1117 24.1122 85.9855 25.9057 85.193 27.9912C84.4005 30.0767 84.0043 32.329 84.0043 34.7482C84.0043 37.2508 84.3797 39.5449 85.1305 41.6304C85.9229 43.7159 87.0283 45.5094 88.4464 47.011C89.8645 48.5125 91.5955 49.6804 93.6393 50.5146C95.6831 51.3071 97.9771 51.7034 100.521 51.7034C104.192 51.7034 107.32 50.8692 109.906 49.2008C112.492 47.5323 114.411 44.7586 115.662 40.8796H107.842C107.55 41.8806 106.757 42.84 105.464 43.7576C104.171 44.6335 102.628 45.0715 100.834 45.0715C98.3317 45.0715 96.413 44.4249 95.0783 43.1319ZM121.81 28.4917C121.935 26.4062 122.457 24.6752 123.374 23.2988C124.292 21.9224 125.46 20.8171 126.878 19.9829C128.296 19.1487 129.881 18.5647 131.633 18.231C133.426 17.8556 135.22 17.668 137.013 17.668C138.64 17.668 140.288 17.7931 141.956 18.0433C143.624 18.2519 145.147 18.6898 146.523 19.3572C147.9 20.0246 149.026 20.963 149.902 22.1726C150.778 23.3405 151.216 24.9046 151.216 26.865V43.695C151.216 45.1549 151.299 46.5522 151.466 47.8869C151.633 49.2216 151.925 50.2226 152.342 50.89H143.332C143.166 50.3895 143.02 49.889 142.894 49.3884C142.811 48.8462 142.748 48.304 142.707 47.7618C141.289 49.2216 139.62 50.2435 137.702 50.8274C135.783 51.4114 133.822 51.7034 131.82 51.7034C130.277 51.7034 128.838 51.5157 127.503 51.1403C126.169 50.7649 125.001 50.1809 124 49.3884C122.999 48.596 122.206 47.5949 121.622 46.3853C121.08 45.1757 120.809 43.7367 120.809 42.0683C120.809 40.2331 121.122 38.7315 121.747 37.5636C122.415 36.3541 123.249 35.3947 124.25 34.6857C125.293 33.9766 126.461 33.4552 127.754 33.1215C129.088 32.7461 130.423 32.4542 131.758 32.2456C133.093 32.0371 134.406 31.8702 135.699 31.7451C136.992 31.62 138.139 31.4323 139.141 31.182C140.142 30.9317 140.934 30.5772 141.518 30.1184C142.102 29.6179 142.373 28.9088 142.331 27.9912C142.331 27.0319 142.165 26.2811 141.831 25.7388C141.539 25.1549 141.122 24.717 140.58 24.425C140.079 24.0913 139.474 23.8827 138.765 23.7993C138.098 23.6742 137.368 23.6116 136.575 23.6116C134.824 23.6116 133.447 23.987 132.446 24.7378C131.445 25.4886 130.861 26.7399 130.694 28.4917H121.81ZM142.331 35.061C141.956 35.3947 141.476 35.6658 140.892 35.8744C140.35 36.0412 139.745 36.1872 139.078 36.3123C138.452 36.4375 137.785 36.5418 137.076 36.6252C136.367 36.7086 135.658 36.8129 134.949 36.938C134.281 37.0631 133.614 37.23 132.947 37.4385C132.321 37.6471 131.758 37.939 131.257 38.3144C130.799 38.6481 130.423 39.0861 130.131 39.6283C129.839 40.1705 129.693 40.8587 129.693 41.6929C129.693 42.4854 129.839 43.1528 130.131 43.695C130.423 44.2373 130.819 44.6752 131.32 45.0089C131.82 45.3009 132.404 45.5094 133.072 45.6345C133.739 45.7597 134.427 45.8222 135.136 45.8222C136.888 45.8222 138.244 45.5303 139.203 44.9463C140.162 44.3624 140.872 43.6742 141.33 42.8817C141.789 42.0475 142.06 41.2133 142.144 40.3791C142.269 39.5449 142.331 38.8775 142.331 38.377V35.061ZM177.889 44.1955C176.929 44.7795 175.72 45.0715 174.26 45.0715C172.842 45.0715 171.632 44.7795 170.631 44.1955C169.63 43.6116 168.817 42.8608 168.191 41.9432C167.607 40.9839 167.169 39.8786 166.877 38.6273C166.627 37.376 166.502 36.1038 166.502 34.8108C166.502 33.4761 166.627 32.1831 166.877 30.9318C167.128 29.6804 167.545 28.5751 168.129 27.6158C168.754 26.6565 169.547 25.8848 170.506 25.3009C171.507 24.6752 172.738 24.3624 174.197 24.3624C175.616 24.3624 176.804 24.6752 177.764 25.3009C178.765 25.8848 179.578 26.6773 180.204 27.6784C180.829 28.6377 181.267 29.743 181.518 30.9943C181.81 32.2456 181.956 33.5178 181.956 34.8108C181.956 36.1038 181.83 37.376 181.58 38.6273C181.33 39.8786 180.892 40.9839 180.266 41.9432C179.682 42.8608 178.89 43.6116 177.889 44.1955ZM166.377 18.5439H157.931V62.2143H166.815V46.8858H166.94C168.024 48.4708 169.401 49.6804 171.069 50.5146C172.779 51.3071 174.635 51.7034 176.638 51.7034C179.015 51.7034 181.08 51.2445 182.831 50.3269C184.625 49.4093 186.106 48.1789 187.274 46.6356C188.483 45.0923 189.38 43.3196 189.964 41.3176C190.548 39.3155 190.84 37.23 190.84 35.061C190.84 32.767 190.548 30.5772 189.964 28.4917C189.38 26.3645 188.483 24.5084 187.274 22.9234C186.064 21.3384 184.542 20.0663 182.706 19.107C180.871 18.1476 178.681 17.668 176.137 17.668C174.135 17.668 172.3 18.0642 170.631 18.8567C168.963 19.6492 167.586 20.9213 166.502 22.6732H166.377V18.5439ZM213.76 16.5917C204.002 16.5917 196.092 24.5021 196.092 34.2602C196.092 44.0182 204.002 51.9286 213.76 51.9286C223.518 51.9286 231.429 44.0182 231.429 34.2602C231.429 24.5021 223.518 16.5917 213.76 16.5917ZM206.854 24.7616V42.4428H211.654V36.6066H213.315L216.42 42.4428H221.634L218.044 35.8505C218.961 35.4103 219.68 34.7846 220.201 33.9734C220.765 33.1043 221.047 32.0367 221.047 30.7704C221.047 29.5157 220.774 28.4394 220.227 27.5415C219.68 26.6437 218.915 25.9559 217.931 25.4781C216.946 25.0004 215.798 24.7616 214.486 24.7616H206.854ZM211.654 32.877H213.346C213.91 32.877 214.391 32.8079 214.788 32.6698C215.191 32.5259 215.499 32.2985 215.712 31.9877C215.93 31.6769 216.04 31.2712 216.04 30.7704C216.04 30.2639 215.93 29.8524 215.712 29.5358C215.499 29.2135 215.191 28.9776 214.788 28.8279C214.391 28.6725 213.91 28.5948 213.346 28.5948H211.654V32.877ZM58.0522 18.0868H49.7224V52.004H58.0522V37.3731H70.0369V52.004H78.3668V18.0868H70.0369V31.1027H58.0522V18.0868Z" fill="#C34534"/>
</svg>
