<svg width="172" height="40" viewBox="0 0 172 40" fill="none" xmlns="http://www.w3.org/2000/svg">
<path d="M17.9075 14.8905C17.4533 12.0033 15.7502 10.5596 12.798 10.5596C11.695 10.5596 10.7705 10.8192 10.0243 11.3382C9.27817 11.8249 8.66179 12.4737 8.17517 13.2847C7.72099 14.0633 7.39658 14.9392 7.20194 15.9124C7.00729 16.8532 6.90997 17.794 6.90997 18.7348C6.90997 19.6432 7.00729 20.5677 7.20194 21.5085C7.39658 22.4493 7.70477 23.309 8.12651 24.0876C8.58069 24.8338 9.18085 25.4501 9.92699 25.9368C10.6731 26.4234 11.5815 26.6667 12.6521 26.6667C14.3065 26.6667 15.5718 26.2125 16.4477 25.3042C17.356 24.3634 17.9237 23.1144 18.1508 21.5572H24.8175C24.3633 24.8986 23.0657 27.4453 20.9245 29.1971C18.7834 30.9489 16.0422 31.8248 12.7007 31.8248C10.8191 31.8248 9.08352 31.5166 7.49391 30.9003C5.93673 30.2514 4.60664 29.3593 3.50364 28.2239C2.40065 27.0884 1.54095 25.7421 0.924573 24.1849C0.308191 22.5953 0 20.8597 0 18.9781C0 17.0317 0.27575 15.2312 0.82725 13.5767C1.41119 11.8897 2.25466 10.4461 3.35766 9.24578C4.46066 8.01302 5.80697 7.056 7.39658 6.37474C8.9862 5.69348 10.8029 5.35284 12.8467 5.35284C14.339 5.35284 15.7664 5.54749 17.1289 5.93678C18.5239 6.32608 19.7567 6.92624 20.8272 7.73727C21.9302 8.51586 22.8224 9.50531 23.5036 10.7056C24.1849 11.8735 24.5742 13.2685 24.6715 14.8905H17.9075Z" fill="#434343"/>
<path d="M75.4875 15.9124C75.1631 14.1606 74.5791 12.8305 73.7357 11.9222C72.9246 11.0138 71.6757 10.5596 69.9887 10.5596C68.8857 10.5596 67.9611 10.7543 67.215 11.1436C66.5013 11.5004 65.9174 11.9546 65.4632 12.5061C65.0414 13.0576 64.7333 13.6416 64.5386 14.2579C64.3764 14.8743 64.2791 15.4258 64.2466 15.9124H75.4875ZM64.2466 20.292C64.344 22.5304 64.9117 24.1525 65.9498 25.1582C66.9879 26.1638 68.4802 26.6667 70.4267 26.6667C71.8216 26.6667 73.022 26.326 74.0276 25.6448C75.0333 24.9311 75.6497 24.1849 75.8768 23.4063H81.9595C80.9863 26.4234 79.494 28.5807 77.4826 29.8784C75.4713 31.176 73.0382 31.8248 70.1834 31.8248C68.2045 31.8248 66.4202 31.5166 64.8306 30.9003C63.241 30.2514 61.8947 29.3431 60.7917 28.1752C59.6887 27.0073 58.829 25.6123 58.2126 23.9903C57.6286 22.3682 57.3367 20.584 57.3367 18.6375C57.3367 16.7559 57.6449 15.0041 58.2612 13.382C58.8776 11.76 59.7535 10.365 60.889 9.19712C62.0244 7.9968 63.3707 7.056 64.9279 6.37474C66.5175 5.69348 68.2693 5.35284 70.1834 5.35284C72.3245 5.35284 74.1899 5.77458 75.7795 6.61805C77.3691 7.42908 78.6667 8.53208 79.6724 9.92705C80.7105 11.322 81.4567 12.9116 81.9108 14.6959C82.365 16.4802 82.5272 18.3455 82.3975 20.292H64.2466Z" fill="#434343"/>
<path d="M86.7411 13.7713C86.8384 12.1493 87.244 10.803 87.9577 9.7324C88.6714 8.66184 89.5797 7.80215 90.6827 7.15333C91.7857 6.50451 93.0185 6.05033 94.381 5.7908C95.776 5.49883 97.1709 5.35284 98.5659 5.35284C99.8311 5.35284 101.113 5.45017 102.41 5.64481C103.708 5.80702 104.892 6.14765 105.962 6.66671C107.033 7.18577 107.909 7.91569 108.59 8.85649C109.271 9.76484 109.612 10.9814 109.612 12.5061V25.5961C109.612 26.7316 109.677 27.8183 109.807 28.8565C109.937 29.8946 110.164 30.6732 110.488 31.1922H103.481C103.351 30.8029 103.237 30.4136 103.14 30.0243C103.075 29.6026 103.027 29.1809 102.994 28.7591C101.891 29.8946 100.593 30.6894 99.1012 31.1436C97.6089 31.5977 96.0842 31.8248 94.527 31.8248C93.3267 31.8248 92.2074 31.6788 91.1693 31.3869C90.1312 31.0949 89.2229 30.6407 88.4443 30.0243C87.6657 29.408 87.0493 28.6294 86.5951 27.6886C86.1734 26.7478 85.9625 25.6286 85.9625 24.3309C85.9625 22.9035 86.2058 21.7356 86.6925 20.8273C87.2115 19.8865 87.8603 19.1403 88.6389 18.5888C89.4499 18.0373 90.3583 17.6318 91.364 17.3723C92.4021 17.0803 93.4402 16.8532 94.4783 16.691C95.5164 16.5288 96.5383 16.3991 97.544 16.3017C98.5497 16.2044 99.4418 16.0584 100.22 15.8638C100.999 15.6691 101.615 15.3934 102.07 15.0365C102.524 14.6472 102.735 14.0957 102.702 13.382C102.702 12.6359 102.572 12.0519 102.313 11.6302C102.086 11.176 101.761 10.8354 101.34 10.6083C100.95 10.3488 100.48 10.1866 99.9284 10.1217C99.4094 10.0244 98.8417 9.97571 98.2253 9.97571C96.8628 9.97571 95.7922 10.2677 95.0136 10.8516C94.235 11.4356 93.7808 12.4088 93.6511 13.7713H86.7411ZM102.702 18.8808C102.41 19.1403 102.037 19.3512 101.583 19.5134C101.161 19.6432 100.691 19.7567 100.172 19.854C99.6851 19.9514 99.1661 20.0325 98.6146 20.0973C98.0631 20.1622 97.5116 20.2433 96.9601 20.3407C96.441 20.438 95.922 20.5677 95.4029 20.73C94.9163 20.8922 94.4783 21.1192 94.089 21.4112C93.7322 21.6707 93.4402 22.0114 93.2131 22.4331C92.986 22.8548 92.8725 23.3901 92.8725 24.0389C92.8725 24.6553 92.986 25.1744 93.2131 25.5961C93.4402 26.0179 93.7484 26.3585 94.1377 26.618C94.527 26.8451 94.9812 27.0073 95.5002 27.1046C96.0193 27.202 96.5546 27.2506 97.1061 27.2506C98.4686 27.2506 99.5229 27.0235 100.269 26.5694C101.015 26.1152 101.567 25.5799 101.924 24.9635C102.28 24.3147 102.491 23.6659 102.556 23.0171C102.653 22.3682 102.702 21.8492 102.702 21.4599V18.8808Z" fill="#434343"/>
<path d="M127.536 26.6667C128.671 26.6667 129.612 26.4396 130.358 25.9854C131.137 25.5312 131.753 24.9473 132.207 24.2336C132.694 23.4874 133.034 22.6278 133.229 21.6545C133.424 20.6813 133.521 19.6918 133.521 18.6862C133.521 17.6805 133.407 16.691 133.18 15.7178C132.986 14.7446 132.645 13.8849 132.158 13.1387C131.672 12.3601 131.039 11.7438 130.261 11.2896C129.515 10.803 128.59 10.5596 127.487 10.5596C126.352 10.5596 125.394 10.803 124.616 11.2896C123.87 11.7438 123.253 12.3439 122.767 13.0901C122.313 13.8362 121.988 14.6959 121.794 15.6691C121.599 16.6424 121.502 17.648 121.502 18.6862C121.502 19.6918 121.599 20.6813 121.794 21.6545C122.021 22.6278 122.361 23.4874 122.815 24.2336C123.302 24.9473 123.935 25.5312 124.713 25.9854C125.492 26.4396 126.433 26.6667 127.536 26.6667ZM114.835 6.03411H121.404V9.24578H121.502C122.345 7.88325 123.416 6.8938 124.713 6.27742C126.011 5.66104 127.438 5.35284 128.995 5.35284C130.974 5.35284 132.678 5.72592 134.105 6.47206C135.532 7.21821 136.716 8.20767 137.657 9.44043C138.598 10.6732 139.296 12.1168 139.75 13.7713C140.204 15.3934 140.431 17.0965 140.431 18.8808C140.431 20.5677 140.204 22.1898 139.75 23.747C139.296 25.3042 138.598 26.6829 137.657 27.8832C136.749 29.0835 135.597 30.0406 134.202 30.7543C132.84 31.468 131.234 31.8248 129.385 31.8248C127.828 31.8248 126.384 31.5166 125.054 30.9003C123.756 30.2514 122.686 29.3106 121.842 28.0779H121.745V40H114.835V6.03411Z" fill="#434343"/>
<rect x="144.516" y="4.51575" width="27.4843" height="27.4843" rx="13.7421" fill="#C34534"/>
<path d="M152.886 24.7333V10.9813H158.822C159.843 10.9813 160.736 11.167 161.502 11.5386C162.267 11.9102 162.862 12.4451 163.288 13.1435C163.713 13.8418 163.926 14.6789 163.926 15.6548C163.926 16.6397 163.706 17.4701 163.268 18.146C162.833 18.822 162.222 19.3323 161.434 19.677C160.651 20.0217 159.736 20.1941 158.688 20.1941H155.143V17.2933H157.936C158.375 17.2933 158.748 17.2395 159.057 17.1321C159.371 17.0202 159.61 16.8434 159.776 16.6016C159.946 16.3599 160.031 16.0443 160.031 15.6548C160.031 15.2609 159.946 14.9408 159.776 14.6946C159.61 14.4439 159.371 14.2604 159.057 14.144C158.748 14.0231 158.375 13.9627 157.936 13.9627H156.62V24.7333H152.886ZM160.944 18.4214L164.382 24.7333H160.326L156.969 18.4214H160.944Z" fill="#F8F8F8"/>
<path d="M30.673 5.67859H37.1517V15.802H46.4732V5.67859H52.9519V32.0587H46.4732V20.679H37.1517V32.0587H30.673V5.67859Z" fill="#434343"/>
</svg>
