<svg width="40" height="40" viewBox="0 0 40 40" xmlns="http://www.w3.org/2000/svg">
<mask id="mask0_35_3206" style="mask-type:alpha" maskUnits="userSpaceOnUse" x="0" y="0" width="40" height="40">
<rect width="40" height="40" />
</mask>
<g mask="url(#mask0_35_3206)">
<path d="M18.3333 21.6666H9.99998C9.52776 21.6666 9.13192 21.5069 8.81248 21.1875C8.49304 20.868 8.33331 20.4722 8.33331 20C8.33331 19.5278 8.49304 19.1319 8.81248 18.8125C9.13192 18.493 9.52776 18.3333 9.99998 18.3333H18.3333V9.99998C18.3333 9.52776 18.493 9.13192 18.8125 8.81248C19.1319 8.49304 19.5278 8.33331 20 8.33331C20.4722 8.33331 20.868 8.49304 21.1875 8.81248C21.5069 9.13192 21.6666 9.52776 21.6666 9.99998V18.3333H30C30.4722 18.3333 30.868 18.493 31.1875 18.8125C31.5069 19.1319 31.6666 19.5278 31.6666 20C31.6666 20.4722 31.5069 20.868 31.1875 21.1875C30.868 21.5069 30.4722 21.6666 30 21.6666H21.6666V30C21.6666 30.4722 21.5069 30.868 21.1875 31.1875C20.868 31.5069 20.4722 31.6666 20 31.6666C19.5278 31.6666 19.1319 31.5069 18.8125 31.1875C18.493 30.868 18.3333 30.4722 18.3333 30V21.6666Z" fill="#F8F8F8"/>
</g>
</svg>
