<svg width="48" height="48" viewBox="0 0 48 48" fill="none" xmlns="http://www.w3.org/2000/svg">
<mask id="mask0_70_1755" style="mask-type:alpha" maskUnits="userSpaceOnUse" x="0" y="0" width="48" height="48">
<rect width="48" height="48" fill="#D9D9D9"/>
</mask>
<g mask="url(#mask0_70_1755)">
<path d="M22 34C21.5333 29.7667 19.825 26.1917 16.875 23.275C13.925 20.3583 10.3667 18.65 6.2 18.15C5.6 18.0833 5.08333 17.85 4.65 17.45C4.21667 17.05 4 16.5667 4 16C4 15.4333 4.2 14.9583 4.6 14.575C5 14.1917 5.48333 14.0333 6.05 14.1C9.95 14.4667 13.4917 15.75 16.675 17.95C19.8583 20.15 22.3 23.0333 24 26.6C25.2667 23.9 26.9333 21.5083 29 19.425C31.0667 17.3417 33.3833 15.5333 35.95 14H30C29.4333 14 28.9583 13.8083 28.575 13.425C28.1917 13.0417 28 12.5667 28 12C28 11.4333 28.1917 10.9583 28.575 10.575C28.9583 10.1917 29.4333 10 30 10H40C40.5667 10 41.0417 10.1917 41.425 10.575C41.8083 10.9583 42 11.4333 42 12V22C42 22.5667 41.8083 23.0417 41.425 23.425C41.0417 23.8083 40.5667 24 40 24C39.4333 24 38.9583 23.8083 38.575 23.425C38.1917 23.0417 38 22.5667 38 22V17.4C34.9 19.3 32.2333 21.65 30 24.45C27.7667 27.25 26.4333 30.4333 26 34H28C28.5667 34 29.0417 34.1917 29.425 34.575C29.8083 34.9583 30 35.4333 30 36C30 36.5667 29.8083 37.0417 29.425 37.425C29.0417 37.8083 28.5667 38 28 38H20C19.4333 38 18.9583 37.8083 18.575 37.425C18.1917 37.0417 18 36.5667 18 36C18 35.4333 18.1917 34.9583 18.575 34.575C18.9583 34.1917 19.4333 34 20 34H22Z" fill="#C34534"/>
</g>
</svg>
