<svg width="241" height="192" viewBox="0 0 241 192" fill="none" xmlns="http://www.w3.org/2000/svg">
<path d="M78.376 0C76.648 11.232 79.432 20.736 86.92 28.512C91.72 33.312 93.256 39.744 91.432 48H100.936C102.088 42.72 102.28 38.4 101.32 34.08C100.456 30.048 97.48 25.248 92.2 19.488C87.88 14.112 86.344 7.68 87.88 0H78.376ZM102.28 0C100.456 11.232 103.336 20.736 110.824 28.512C115.624 33.312 117.064 39.744 115.336 48H124.744C125.8 42.72 126.088 38.4 125.224 34.08C124.264 30.048 121.288 25.248 116.2 19.488C111.688 14.112 110.248 7.68 111.688 0H102.28ZM126.568 0C124.744 11.232 127.624 20.736 135.112 28.512C139.912 33.312 141.256 39.744 139.144 48H149.032C150.28 42.72 150.376 38.4 149.512 34.08C148.648 30.048 145.576 25.248 140.488 19.488C135.976 14.112 134.536 7.68 135.976 0H126.568ZM49 57.6C49 71.232 52.744 83.52 59.944 94.464C66.9627 105.248 76.9702 113.754 88.744 118.944L50.536 177.024C49.576 178.176 49 180 49 182.4C49 186.336 50.536 189.024 53.224 190.464C54.376 191.424 56.2 192 58.6 192C62.536 192 65.224 190.464 66.664 187.776L76.168 172.512H137.32C139.336 178.08 142.984 182.88 147.688 186.432C152.488 190.08 158.056 192 164.2 192C172.168 192 178.888 189.024 184.648 183.264C190.312 177.6 193 170.88 193 163.2C193 155.232 190.312 148.512 184.648 142.848C178.888 137.088 172.168 134.4 164.2 134.4C158.056 134.4 152.488 136.032 147.688 139.68C142.888 143.232 139.432 147.936 137.32 153.6H88.744L107.656 124.32C109.192 124.8 111.976 124.8 116.2 124.8C120.424 124.8 123.208 124.8 124.744 124.32L134.248 139.2C138.184 134.016 143.464 129.984 149.512 127.488L144.136 118.944C154.888 114.144 164.2 105.6 171.784 93.792C179.464 81.6 183.4 69.792 183.4 57.6H49ZM164.2 153.6C167.08 153.6 169.288 154.464 171.112 156.288C172.936 158.112 173.8 160.512 173.8 163.2C173.8 165.792 172.936 168 171.112 170.016C169.384 171.936 166.888 172.8 164.2 172.8C161.704 172.8 159.4 171.936 157.384 170.016C156.494 169.119 155.79 168.055 155.313 166.886C154.835 165.716 154.593 164.463 154.6 163.2C154.6 160.32 155.464 158.112 157.384 156.288C159.4 154.464 161.608 153.6 164.2 153.6Z" fill="#C34534"/>
</svg>
