<svg width="84" height="68" viewBox="0 0 84 68" fill="none" xmlns="http://www.w3.org/2000/svg">
<path d="M27.4286 54.7084C42.577 54.7084 54.8571 47.8861 54.8571 39.4703C54.8571 31.0546 42.577 24.2322 27.4286 24.2322C12.2802 24.2322 0 31.0546 0 39.4703C0 47.8861 12.2802 54.7084 27.4286 54.7084Z" fill="#8899A6"/>
<path d="M27.4286 52.0418C42.577 52.0418 54.8571 45.2195 54.8571 36.8037C54.8571 28.3879 42.577 21.5656 27.4286 21.5656C12.2802 21.5656 0 28.3879 0 36.8037C0 45.2195 12.2802 52.0418 27.4286 52.0418Z" fill="#CCD6DD"/>
<path d="M49.7902 35.9427C49.7902 42.4341 39.7788 47.6943 27.4283 47.6943C15.0778 47.6943 5.06641 42.4341 5.06641 35.9427C5.06641 29.4543 15.0778 24.1926 27.4283 24.1926C39.7773 24.1926 49.7902 29.4543 49.7902 35.9427Z" fill="#DD2E44"/>
<path d="M49.115 34.2025C49.115 49.2181 5.73828 49.2181 5.73828 34.2025V20.8555H49.115V34.2025Z" fill="#F4ABBA"/>
<path d="M27.4047 27.5328C13.7148 27.5328 5.73922 21.2365 5.73922 21.2365C5.73922 21.2365 5.71484 22.6444 5.71484 23.8041C5.71484 23.8041 5.76361 31.2677 9.63408 31.2677C13.3811 31.2677 13.1084 34.8456 15.4764 35.2159C17.8246 35.5831 18.0851 33.7865 21.0002 33.7865C23.9152 33.7865 24.4287 36.9957 27.4047 36.9957C30.8927 36.9957 31.1792 33.7865 34.0927 33.7865C37.0063 33.7865 37.3415 35.6517 39.2524 35.1351C41.5488 34.5134 40.4927 31.2692 45.1754 31.2692C49.0459 31.2692 49.1419 24.1865 49.1419 24.1865C49.1419 23.0285 49.116 21.238 49.116 21.238C49.116 21.238 41.0962 27.5328 27.4047 27.5328Z" fill="#DD2E44"/>
<path d="M49.7902 19.2601C49.7902 25.75 39.7788 31.0117 27.4283 31.0117C15.0778 31.0117 5.06641 25.75 5.06641 19.2601C5.06641 12.7702 15.0778 7.50848 27.4283 7.50848C39.7773 7.50848 49.7902 12.7702 49.7902 19.2601Z" fill="#EA596E"/>
<path d="M39.108 20.8555C38.1861 20.8555 37.4395 20.1089 37.4395 19.187V7.50848C37.4395 7.06594 37.6152 6.64154 37.9282 6.32862C38.2411 6.0157 38.6655 5.8399 39.108 5.8399C39.5506 5.8399 39.975 6.0157 40.2879 6.32862C40.6008 6.64154 40.7766 7.06594 40.7766 7.50848V19.187C40.7766 20.1089 40.0299 20.8555 39.108 20.8555Z" fill="#FFF8E8"/>
<path d="M39.1073 10.0106C37.3367 10.0106 35.9439 9.19989 35.3816 7.84217C34.894 6.66427 34.6517 4.10884 38.5176 0.244458C38.595 0.166961 38.687 0.105482 38.7882 0.0635359C38.8893 0.0215901 38.9978 0 39.1073 0C39.2169 0 39.3253 0.0215901 39.4265 0.0635359C39.5277 0.105482 39.6196 0.166961 39.6971 0.244458C43.563 4.11036 43.3207 6.66427 42.8331 7.84217C42.2708 9.19989 40.878 10.0106 39.1073 10.0106Z" fill="#FAAA35"/>
<path d="M27.4303 25.8597C26.5084 25.8597 25.7617 25.113 25.7617 24.1911V12.5142C25.7617 12.295 25.8049 12.0781 25.8887 11.8756C25.9726 11.6732 26.0955 11.4892 26.2504 11.3343C26.4054 11.1794 26.5893 11.0564 26.7918 10.9726C26.9942 10.8887 27.2112 10.8456 27.4303 10.8456C27.6494 10.8456 27.8664 10.8887 28.0688 10.9726C28.2713 11.0564 28.4552 11.1794 28.6101 11.3343C28.7651 11.4892 28.888 11.6732 28.9718 11.8756C29.0557 12.0781 29.0989 12.295 29.0989 12.5142V24.1926C29.0989 25.113 28.3522 25.8597 27.4303 25.8597Z" fill="#FFF8E8"/>
<path d="M27.4283 15.0162C25.6577 15.0162 24.2649 14.2056 23.7026 12.8478C23.2135 11.6699 22.9727 9.11451 26.8386 5.25013C26.916 5.17264 27.008 5.11116 27.1091 5.06921C27.2103 5.02727 27.3188 5.00568 27.4283 5.00568C27.5379 5.00568 27.6463 5.02727 27.7475 5.06921C27.8487 5.11116 27.9406 5.17264 28.018 5.25013C31.8839 9.11604 31.6417 11.6699 31.154 12.8478C30.5918 14.2056 29.199 15.0162 27.4283 15.0162Z" fill="#FAAA35"/>
<path d="M15.7506 20.8555C14.8287 20.8555 14.082 20.1089 14.082 19.187V7.50848C14.082 7.28936 14.1252 7.07238 14.209 6.86994C14.2929 6.6675 14.4158 6.48356 14.5707 6.32862C14.7257 6.17368 14.9096 6.05077 15.1121 5.96692C15.3145 5.88306 15.5315 5.8399 15.7506 5.8399C15.9697 5.8399 16.1867 5.88306 16.3891 5.96692C16.5916 6.05077 16.7755 6.17368 16.9305 6.32862C17.0854 6.48356 17.2083 6.6675 17.2922 6.86994C17.376 7.07238 17.4192 7.28936 17.4192 7.50848V19.187C17.4192 20.1089 16.6725 20.8555 15.7506 20.8555Z" fill="#FFF8E8"/>
<path d="M15.7506 10.0106C13.9799 10.0106 12.5872 9.19989 12.0249 7.84217C11.5357 6.66427 11.295 4.10884 15.1609 0.244458C15.2383 0.166961 15.3302 0.105482 15.4314 0.0635359C15.5326 0.0215901 15.6411 0 15.7506 0C15.8601 0 15.9686 0.0215901 16.0698 0.0635359C16.171 0.105482 16.2629 0.166961 16.3403 0.244458C20.2062 4.11036 19.9639 6.66427 19.4763 7.84217C18.914 9.19989 17.5213 10.0106 15.7506 10.0106Z" fill="#FAAA35"/>
<path d="M56.8594 36.4939C56.8594 36.4939 58.3996 42.0451 58.798 44.7155C59.2477 47.7309 62.2593 50.1154 69.4602 50.1154C76.6611 50.1154 79.6727 47.73 80.1225 44.7155C80.5209 42.0451 82.0611 36.4939 82.0611 36.4939H56.8594Z" fill="#BBDDF5"/>
<path d="M56.9492 36.585C57.1915 37.7666 57.6219 38.5178 58.252 38.1301C58.882 37.7424 59.8513 37.943 59.5547 38.7359C59.2823 39.4629 60.4939 39.7963 61.0086 39.3717C61.502 38.9656 62.5159 38.5178 62.6138 39.4318C62.7049 40.28 63.7459 40.5078 64.2189 39.8864C64.7036 39.2506 66.0364 39.5045 66.2787 40.28C66.521 41.0554 67.8238 40.9469 68.1872 40.4011C68.5313 39.8845 68.8783 39.5433 69.459 39.5433V39.523C70.0405 39.523 70.3866 39.8845 70.7307 40.4011C71.0942 40.9459 72.3969 41.0554 72.6392 40.28C72.8815 39.5045 74.2143 39.2506 74.699 39.8864C75.173 40.5078 76.213 40.28 76.3041 39.4318C76.402 38.5178 77.4159 38.9646 77.9093 39.3717C78.424 39.7963 79.6356 39.4629 79.3632 38.7359C79.0656 37.943 80.0359 37.7424 80.666 38.1301C81.296 38.5178 81.7264 37.7666 81.9687 36.585H56.9492Z" fill="#662113"/>
<path d="M84.0003 33.677C84.0003 28.909 77.4759 25.0444 69.4288 25.0444C61.3808 25.0444 54.8574 28.909 54.8574 33.677C54.8574 37.5241 63.5811 39.5228 69.4288 39.5228C75.2766 39.5228 84.0003 37.5842 84.0003 33.677Z" fill="#C1694F"/>
<path d="M69.458 49.7005C69.3294 49.7005 69.2062 49.6494 69.1153 49.5585C69.0244 49.4676 68.9733 49.3443 68.9733 49.2158V40.8353C68.9733 40.7067 69.0244 40.5835 69.1153 40.4926C69.2062 40.4017 69.3294 40.3506 69.458 40.3506C69.5865 40.3506 69.7098 40.4017 69.8007 40.4926C69.8916 40.5835 69.9426 40.7067 69.9426 40.8353V49.2158C69.9426 49.3443 69.8916 49.4676 69.8007 49.5585C69.7098 49.6494 69.5865 49.7005 69.458 49.7005ZM62.9647 48.4714C62.8469 48.4714 62.7331 48.4285 62.6446 48.3507C62.5561 48.273 62.499 48.1656 62.4839 48.0488L61.4846 40.3119C61.4763 40.2486 61.4805 40.1844 61.4971 40.1229C61.5136 40.0613 61.5422 40.0036 61.5811 39.9531C61.62 39.9026 61.6685 39.8602 61.7238 39.8285C61.779 39.7967 61.8401 39.7762 61.9033 39.7681C61.9665 39.7595 62.0308 39.7636 62.0924 39.7801C62.154 39.7965 62.2117 39.8251 62.2622 39.864C62.3127 39.903 62.3549 39.9516 62.3865 40.007C62.4181 40.0624 62.4383 40.1235 62.4461 40.1868L63.4454 47.9237C63.4541 47.9921 63.4481 48.0615 63.4279 48.1274C63.4078 48.1932 63.3738 48.2541 63.3284 48.3058C63.2829 48.3576 63.227 48.3991 63.1643 48.4277C63.1016 48.4562 63.0336 48.4711 62.9647 48.4714ZM66.0461 49.4174C65.9245 49.4173 65.8073 49.3716 65.7179 49.2891C65.6285 49.2067 65.5733 49.0937 65.5634 48.9725L64.8771 40.7131C64.8719 40.6497 64.8792 40.5858 64.8987 40.5252C64.9181 40.4646 64.9493 40.4084 64.9905 40.3598C65.0317 40.3113 65.082 40.2713 65.1387 40.2422C65.1953 40.2131 65.2571 40.1954 65.3205 40.1902C65.384 40.185 65.4479 40.1923 65.5085 40.2118C65.5691 40.2312 65.6253 40.2625 65.6739 40.3036C65.7224 40.3448 65.7624 40.3952 65.7915 40.4518C65.8206 40.5084 65.8383 40.5702 65.8435 40.6337L66.5297 48.893C66.5402 49.021 66.4994 49.148 66.4164 49.2459C66.3333 49.3439 66.2148 49.4049 66.0868 49.4155L66.0461 49.4174ZM60.27 46.4698C60.1862 46.4697 60.105 46.4405 60.0401 46.3874C59.9753 46.3342 59.9308 46.2602 59.9143 46.178L58.4604 38.9684C58.4509 38.9217 58.4507 38.8736 58.4599 38.8268C58.469 38.78 58.4873 38.7355 58.5137 38.6958C58.5401 38.6561 58.574 38.622 58.6136 38.5954C58.6532 38.5688 58.6976 38.5503 58.7444 38.541C58.9363 38.4944 59.1321 38.6282 59.1728 38.825L60.6267 46.0346C60.6375 46.0874 60.6364 46.1419 60.6235 46.1943C60.6106 46.2466 60.5861 46.2954 60.552 46.3371C60.5178 46.3788 60.4747 46.4123 60.426 46.4353C60.3772 46.4582 60.3239 46.47 60.27 46.4698ZM75.8757 48.3619C75.8061 48.362 75.7374 48.3472 75.6741 48.3184C75.6108 48.2896 75.5544 48.2475 75.5088 48.195C75.4632 48.1425 75.4294 48.0808 75.4097 48.0141C75.3901 47.9474 75.385 47.8772 75.3949 47.8084L76.4902 40.181C76.5101 40.0545 76.5786 39.9408 76.6811 39.8641C76.7835 39.7873 76.9119 39.7536 77.0388 39.77C77.1019 39.779 77.1625 39.8004 77.2172 39.8329C77.272 39.8653 77.3198 39.9083 77.358 39.9592C77.3961 40.0101 77.4239 40.0681 77.4397 40.1298C77.4554 40.1915 77.4589 40.2556 77.4498 40.3186L76.3545 47.946C76.338 48.0613 76.2805 48.1668 76.1926 48.2431C76.1046 48.3195 75.9922 48.3616 75.8757 48.3619ZM72.9271 49.4174L72.8864 49.4155C72.7584 49.4049 72.6399 49.3439 72.5568 49.2459C72.4737 49.148 72.433 49.021 72.4434 48.893L73.1297 40.6337C73.151 40.3661 73.4127 40.1742 73.6521 40.1907C73.7801 40.2013 73.8987 40.2623 73.9817 40.3603C74.0648 40.4582 74.1056 40.5851 74.0951 40.7131L73.4088 48.9725C73.3989 49.0935 73.3438 49.2064 73.2546 49.2888C73.1654 49.3712 73.0485 49.4171 72.9271 49.4174ZM78.7264 46.5095C78.6729 46.5097 78.62 46.4979 78.5716 46.4752C78.5232 46.4525 78.4803 46.4193 78.4463 46.378C78.4122 46.3368 78.3876 46.2885 78.3744 46.2367C78.3611 46.1849 78.3595 46.1307 78.3697 46.0782L79.7635 38.8288C79.7725 38.782 79.7905 38.7374 79.8167 38.6975C79.8428 38.6576 79.8766 38.6233 79.916 38.5965C79.9554 38.5697 79.9997 38.5509 80.0464 38.5412C80.0931 38.5315 80.1412 38.5311 80.1881 38.54C80.2349 38.5489 80.2796 38.5669 80.3194 38.5931C80.3593 38.6193 80.3936 38.653 80.4204 38.6924C80.4473 38.7319 80.4661 38.7762 80.4758 38.8229C80.4854 38.8696 80.4859 38.9177 80.4769 38.9645L79.0831 46.2139C79.0675 46.2971 79.0233 46.3721 78.9581 46.4261C78.893 46.4801 78.811 46.5096 78.7264 46.5095Z" fill="#88C9F9"/>
<path d="M68.4061 15.2799C68.4061 15.2799 69.4597 16.3888 70.5143 16.4111C72.7127 16.4586 74.7356 17.6857 74.7356 19.8094C74.7356 19.8094 79.8351 19.8094 80.0115 24.3399C80.0115 24.3399 82.585 24.3835 83.1743 28.8685C83.6144 32.2184 80.2296 36.8429 69.4607 36.7954C59.9664 36.7537 55.1093 33.3796 55.7471 28.8704C56.3616 24.528 59.9674 24.3409 59.9674 24.3409C59.9674 24.3409 59.3509 18.6773 66.2959 18.6783C66.2959 18.6783 66.9997 16.413 68.4061 15.2799Z" fill="#FFE8B6"/>
<path d="M69.3702 25.472C72.2161 24.398 74.8206 22.4526 74.7333 19.8103C74.7333 18.9786 74.4164 18.2904 73.9075 17.7505C74.5308 20.4723 70.3686 23.5663 65.7664 24.0568C60.0078 24.6704 60.6669 21.273 60.6669 21.273L60.6601 21.2798C59.8042 22.7686 59.9651 24.3418 59.9651 24.3418C60.8424 26.6516 65.3699 26.9821 69.3702 25.472Z" fill="#FFCC4D"/>
<path d="M80.0111 24.3408C80.0053 24.2022 79.9821 24.081 79.9675 23.9511C79.8551 23.2949 79.5284 22.4913 79.2173 21.8787C79.0331 21.6222 78.8296 21.3954 78.6066 21.1983C79.6816 25.4884 73.2144 30.648 67.0429 31.8431C58.9987 33.3998 55.7467 28.8722 55.7467 28.8722C55.4153 31.2131 56.5784 33.2428 59.0899 34.6647C69.0028 38.7057 80.0974 28.7569 80.0111 24.3408Z" fill="#FFCC4D"/>
<path d="M60.4345 29.0555L59.2898 30.6199C59.1374 30.8268 58.9094 30.9649 58.6554 31.0042C58.4015 31.0434 58.1424 30.9805 57.9347 30.8293C57.7278 30.6769 57.5897 30.4488 57.5505 30.1949C57.5112 29.941 57.5741 29.6819 57.7253 29.4742L58.8701 27.9098C59.0225 27.7029 59.2505 27.5647 59.5044 27.5255C59.7583 27.4863 60.0175 27.5491 60.2252 27.7004C60.6555 28.0154 60.7496 28.6251 60.4345 29.0555Z" fill="#DD2E44"/>
<path d="M66.49 23.2262L64.594 22.82C64.3428 22.7661 64.1232 22.6146 63.9836 22.3988C63.844 22.1831 63.7958 21.9207 63.8496 21.6695C63.9611 21.148 64.4796 20.8126 65.0001 20.925L66.8961 21.3312C67.4176 21.4426 67.7529 21.9612 67.6405 22.4817C67.5866 22.733 67.4351 22.9525 67.2193 23.0921C67.0036 23.2317 66.7412 23.2799 66.49 23.2262Z" fill="#55ACEE"/>
<path d="M67.9379 29.0284L69.2106 30.491C69.5605 30.8933 69.5179 31.5088 69.1156 31.8587C68.9213 32.0268 68.6684 32.1111 68.4122 32.0933C68.1559 32.0755 67.9171 31.957 67.7479 31.7637L66.4752 30.301C66.3072 30.1068 66.2228 29.8539 66.2406 29.5976C66.2584 29.3413 66.3769 29.1025 66.5702 28.9334C66.7645 28.7653 67.0174 28.681 67.2737 28.6987C67.5299 28.7165 67.7687 28.835 67.9379 29.0284Z" fill="#77B255"/>
<path d="M75.6345 26.4365L73.8209 27.1218C73.5804 27.2119 73.314 27.2031 73.0799 27.0974C72.8458 26.9917 72.663 26.7976 72.5715 26.5576C72.4814 26.3171 72.4902 26.0507 72.5959 25.8166C72.7016 25.5825 72.8956 25.3997 73.1357 25.3082L74.9492 24.6229C75.1898 24.5328 75.4562 24.5416 75.6903 24.6473C75.9244 24.753 76.1071 24.947 76.1986 25.187C76.2887 25.4276 76.28 25.694 76.1743 25.9281C76.0686 26.1622 75.8745 26.345 75.6345 26.4365Z" fill="#F4900C"/>
<path d="M81.4468 28.9101L80.4775 30.5889C80.211 31.0503 79.6149 31.2102 79.1535 30.9437C78.9315 30.8146 78.7695 30.6029 78.703 30.3548C78.6366 30.1067 78.671 29.8424 78.7987 29.6196L79.768 27.9408C80.0346 27.4794 80.6307 27.3195 81.0921 27.586C81.5535 27.8526 81.7134 28.4477 81.4468 28.9101Z" fill="#AA8DD8"/>
<path d="M50.7927 47.6709C42.4751 47.6709 36.5684 50.8321 36.5684 54.7826C36.5684 60.9289 41.3098 67.4259 50.7927 67.4259C60.2755 67.4259 65.017 60.9289 65.017 54.7826C65.017 50.8321 59.1103 47.6709 50.7927 47.6709Z" fill="#C1694F"/>
<path d="M50.7927 46.8807C42.4751 46.8807 36.5684 49.8357 36.5684 54.6803C36.5684 59.5248 42.4742 62.6853 50.7927 62.6853C59.1111 62.6853 65.017 59.3186 65.017 54.6803C65.017 50.042 59.1103 46.8807 50.7927 46.8807Z" fill="#D99E82"/>
<path d="M38.1464 57.1538C37.3563 57.9439 42.0977 62.6854 44.468 60.315C46.8383 57.9447 49.2931 61.542 49.9995 61.8953C51.5798 62.6854 55.484 58.3158 59.4824 60.315C61.0634 61.1051 63.4337 58.7348 63.4337 56.3637C63.4337 53.9926 38.9373 56.3637 38.1464 57.1538Z" fill="#CCD6DD"/>
<path d="M38.0693 55.9268C38.0693 55.9268 37.9224 56.2337 37.9321 56.3296C38.1083 58.0706 42.0994 61.8952 44.4706 59.5249C46.8417 57.1546 49.2956 60.7519 50.0021 61.1051C51.5823 61.8952 55.4865 57.5257 59.485 59.5249C60.7907 60.1778 63.4217 57.7157 63.7546 55.6182C62.0201 55.6182 38.0693 55.9268 38.0693 55.9268Z" fill="white"/>
<path d="M51.314 42.2206C47.9319 42.0233 36.756 43.7935 36.3516 53.5987C36.3597 54.0924 36.8323 55.0125 38.0682 55.9268C40.1437 57.4624 44.3736 58.9833 52.1796 58.4465C58.9796 57.9788 62.2139 56.7413 63.7535 55.6182C65.034 54.6844 65.1429 53.8293 65.1429 53.5622C65.1437 50.4034 62.2675 42.8726 51.314 42.2206Z" fill="#C1694F"/>
<path d="M47.8535 48.4285C48.8182 48.8029 49.9948 48.8979 50.9384 48.9336C52.1889 48.9807 53.4801 48.828 54.651 48.366C54.651 47.584 54.651 46.0615 51.2519 46.0615C47.8527 46.0615 47.8535 47.4996 47.8535 48.4285Z" fill="white"/>
<path d="M51.3777 45.2405C48.1629 45.0277 45.3638 46.9238 47.0967 48.0444C47.3232 48.1995 47.5807 48.3238 47.8519 48.4285C48.5803 47.7951 49.9404 47.1325 51.3314 47.1934C52.9766 47.2657 54.0866 47.7838 54.6494 48.366C54.9027 48.2661 55.1528 48.1565 55.394 48.0257C56.6031 47.126 55.3485 45.5036 51.3777 45.2405Z" fill="#8A4B38"/>
<path d="M43.5913 48.029C43.1568 48.2125 41.6814 48.4212 41.4979 47.9868C41.3143 47.5523 42.4926 46.6396 42.927 46.4561C43.0303 46.4125 43.1412 46.3896 43.2533 46.3889C43.3654 46.3881 43.4765 46.4094 43.5804 46.4516C43.6843 46.4938 43.7788 46.556 43.8586 46.6348C43.9385 46.7135 44.002 46.8072 44.0456 46.9104C44.0892 47.0137 44.1121 47.1246 44.1128 47.2367C44.1136 47.3488 44.0923 47.4599 44.0501 47.5638C44.0079 47.6677 43.9457 47.7622 43.8669 47.842C43.7882 47.9219 43.6945 47.9854 43.5913 48.029ZM61.6175 47.6181C61.87 47.9015 62.4108 48.9718 62.1275 49.2243C61.8441 49.4769 60.8436 48.8159 60.5911 48.5325C60.5311 48.4651 60.4849 48.3865 60.4552 48.3013C60.4255 48.216 60.4129 48.1258 60.4181 48.0357C60.4233 47.9456 60.4462 47.8574 60.4855 47.7761C60.5248 47.6949 60.5797 47.6221 60.6471 47.5621C60.7145 47.5021 60.7931 47.4559 60.8783 47.4262C60.9636 47.3965 61.0538 47.3839 61.1439 47.3891C61.234 47.3943 61.3222 47.4172 61.4035 47.4565C61.4847 47.4958 61.5575 47.5507 61.6175 47.6181ZM56.276 54.211C55.9171 54.3344 54.7209 54.4205 54.5975 54.0616C54.4741 53.7027 55.4704 53.0352 55.8294 52.9117C55.9149 52.8812 56.0057 52.868 56.0965 52.8728C56.1872 52.8777 56.2761 52.9004 56.358 52.9399C56.4398 52.9793 56.5131 53.0345 56.5735 53.1025C56.6338 53.1704 56.6801 53.2496 56.7097 53.3355C56.7392 53.4215 56.7514 53.5124 56.7455 53.6031C56.7397 53.6937 56.7159 53.7824 56.6756 53.8638C56.6352 53.9452 56.5791 54.0178 56.5106 54.0774C56.442 54.137 56.3622 54.1824 56.276 54.211ZM42.5852 51.7643C42.266 52.1119 41.0918 52.8265 40.7443 52.5073C40.3967 52.1882 41.0082 50.9572 41.3273 50.6096C41.4031 50.527 41.4945 50.4602 41.5961 50.4129C41.6978 50.3656 41.8078 50.3388 41.9198 50.334C42.0318 50.3292 42.1437 50.3466 42.249 50.385C42.3543 50.4234 42.451 50.4823 42.5336 50.5581C42.6162 50.6339 42.683 50.7252 42.7303 50.8269C42.7776 50.9285 42.8044 51.0385 42.8092 51.1505C42.814 51.2625 42.7967 51.3744 42.7582 51.4797C42.7198 51.585 42.661 51.6817 42.5852 51.7643Z" fill="#D99E82"/>
<path d="M50.3479 43.9597C50.8933 43.9555 51.3338 43.7464 51.3319 43.4926C51.3299 43.2387 50.8863 43.0363 50.3409 43.0405C49.7956 43.0446 49.3551 43.2537 49.357 43.5076C49.3589 43.7614 49.8026 43.9638 50.3479 43.9597Z" fill="#D99E82"/>
</svg>
