<svg width="32" height="32" viewBox="0 0 32 32" fill="none" xmlns="http://www.w3.org/2000/svg">
<path d="M18.8 11.3333L16 8.53333L13.2 11.3333L11.3334 9.46667L14.1334 6.66667L11.3334 3.86667L13.2 2L16 4.8L18.8 2L20.6667 3.86667L17.8667 6.66667L20.6667 9.46667L18.8 11.3333ZM9.33337 24C10.8 24 12 25.2 12 26.6667C12 28.1333 10.8 29.3333 9.33337 29.3333C7.86671 29.3333 6.66671 28.1333 6.66671 26.6667C6.66671 25.2 7.86671 24 9.33337 24ZM22.6667 24C24.1334 24 25.3334 25.2 25.3334 26.6667C25.3334 28.1333 24.1334 29.3333 22.6667 29.3333C21.2 29.3333 20 28.1333 20 26.6667C20 25.2 21.2 24 22.6667 24ZM9.60004 19.7333C9.60004 19.8667 9.73337 20 9.86671 20H25.3334V22.6667H9.33337C7.86671 22.6667 6.66671 21.4667 6.66671 20C6.66671 19.4667 6.80004 19.0667 6.93337 18.6667L8.66671 15.4667L4.00004 5.33333H1.33337V2.66667H5.73337L11.4667 14.6667H20.8L26 5.33333L28.2667 6.66667L23.0667 16C22.6667 16.8 21.7334 17.3333 20.8 17.3333H10.8L9.60004 19.4667V19.7333Z" fill="#F8F8F8"/>
</svg>
