<svg width="32" height="32" viewBox="0 0 32 32" fill="none" xmlns="http://www.w3.org/2000/svg">
<path d="M22.6667 24C23.374 24 24.0522 24.281 24.5523 24.7811C25.0524 25.2812 25.3334 25.9594 25.3334 26.6667C25.3334 27.3739 25.0524 28.0522 24.5523 28.5523C24.0522 29.0524 23.374 29.3334 22.6667 29.3334C21.9595 29.3334 21.2812 29.0524 20.7811 28.5523C20.281 28.0522 20 27.3739 20 26.6667C20 25.1867 21.1867 24 22.6667 24ZM1.33337 2.66669H5.69337L6.94671 5.33335H26.6667C27.0203 5.33335 27.3595 5.47383 27.6095 5.72388C27.8596 5.97393 28 6.31307 28 6.66669C28 6.89335 27.9334 7.12002 27.84 7.33335L23.0667 15.96C22.6134 16.7734 21.7334 17.3334 20.7334 17.3334H10.8L9.60004 19.5067L9.56004 19.6667C9.56004 19.7551 9.59516 19.8399 9.65767 19.9024C9.72018 19.9649 9.80497 20 9.89337 20H25.3334V22.6667H9.33337C8.62613 22.6667 7.94785 22.3857 7.44776 21.8856C6.94766 21.3855 6.66671 20.7073 6.66671 20C6.66671 19.5334 6.78671 19.0934 6.98671 18.72L8.80004 15.4534L4.00004 5.33335H1.33337V2.66669ZM9.33337 24C10.0406 24 10.7189 24.281 11.219 24.7811C11.7191 25.2812 12 25.9594 12 26.6667C12 27.3739 11.7191 28.0522 11.219 28.5523C10.7189 29.0524 10.0406 29.3334 9.33337 29.3334C8.62613 29.3334 7.94785 29.0524 7.44776 28.5523C6.94766 28.0522 6.66671 27.3739 6.66671 26.6667C6.66671 25.1867 7.85337 24 9.33337 24Z" fill="#F8F8F8"/>
<rect x="9.33337" y="2.66669" width="5.33333" height="9.33333" rx="1.33333" fill="#F8F8F8"/>
<rect x="8" y="6.66669" width="17.3333" height="5.33333" rx="1.33333" fill="#F8F8F8"/>
<rect x="24" y="14.6667" width="14.6667" height="8" rx="1.33333" transform="rotate(-180 24 14.6667)" fill="#F8F8F8"/>
<rect x="21.8755" y="11.7571" width="10.0095" height="7.66312" rx="1.33333" transform="rotate(-148.584 21.8755 11.7571)" fill="#F8F8F8"/>
</svg>
