<svg width="32" height="32" viewBox="0 0 32 32" fill="none" xmlns="http://www.w3.org/2000/svg">
<path d="M16 0L10.6667 5.33333H13.3334V10.6667H18.6667V5.33333H21.3334M1.33337 2.66667V5.33333H4.00004L8.80004 15.4667L6.93337 18.6667C6.80004 19.0667 6.66671 19.4667 6.66671 20C6.66671 21.4667 7.86671 22.6667 9.33337 22.6667H25.3334V20H9.86671C9.73337 20 9.60004 19.8667 9.60004 19.7333V19.6L10.8 17.3333H20.6667C21.6 17.3333 22.5334 16.8 22.9334 16L28.1334 6.66667L25.8667 5.33333L20.6667 14.6667H11.3334L5.73337 2.66667M9.33337 24C7.86671 24 6.66671 25.2 6.66671 26.6667C6.66671 28.1333 7.86671 29.3333 9.33337 29.3333C10.8 29.3333 12 28.1333 12 26.6667C12 25.2 10.8 24 9.33337 24ZM22.6667 24C21.2 24 20 25.2 20 26.6667C20 28.1333 21.2 29.3333 22.6667 29.3333C24.1334 29.3333 25.3334 28.1333 25.3334 26.6667C25.3334 25.2 24.1334 24 22.6667 24Z" fill="#F8F8F8"/>
</svg>
