<svg width="241" height="192" viewBox="0 0 241 192" fill="none" xmlns="http://www.w3.org/2000/svg">
<path d="M75.3937 98.2677V55.4331C75.3937 51.2336 76.8652 47.6657 79.8082 44.7294C82.7511 41.7932 86.319 40.3217 90.5118 40.315C94.7045 40.3082 98.2757 41.7797 101.225 44.7294C104.175 47.6792 105.643 51.247 105.63 55.4331V98.2677C105.63 102.467 104.162 106.038 101.225 108.981C98.2892 111.924 94.718 113.392 90.5118 113.386C86.3056 113.379 82.7377 111.911 79.8082 108.981C76.8786 106.052 75.4071 102.481 75.3937 98.2677ZM125.787 96V15.1181C125.787 10.9187 127.259 7.35078 130.202 4.41451C133.145 1.47824 136.713 0.00674206 140.905 2.29062e-05C145.098 -0.00669625 148.669 1.4648 151.619 4.41451C154.569 7.36422 156.037 10.9321 156.024 15.1181V96C156.024 101.039 154.471 104.819 151.367 107.339C148.263 109.858 144.776 111.118 140.905 111.118C137.035 111.118 133.551 109.858 130.454 107.339C127.356 104.819 125.801 101.039 125.787 96ZM25 130.772V95.748C25 91.5485 26.4715 87.9806 29.4145 85.0444C32.3575 82.1081 35.9253 80.6366 40.1181 80.6299C44.3109 80.6232 47.8821 82.0947 50.8318 85.0444C53.7815 87.9941 55.2496 91.562 55.2362 95.748V130.772C55.2362 135.811 53.6841 139.59 50.5798 142.11C47.4756 144.63 43.9883 145.89 40.1181 145.89C36.2479 145.89 32.764 144.63 29.6665 142.11C26.5689 139.59 25.0134 135.811 25 130.772ZM49.189 192C44.8215 192 41.7542 189.944 39.9871 185.832C38.2199 181.72 38.9355 178.064 42.1338 174.866L83.4567 133.543C85.3044 131.695 87.5318 130.688 90.1389 130.52C92.7459 130.352 95.0539 131.192 97.0629 133.039L125.787 157.732L182.228 101.291H176.181C173.325 101.291 170.933 100.324 169.005 98.3886C167.077 96.4535 166.109 94.0615 166.102 91.2126C166.096 88.3636 167.063 85.9716 169.005 84.0365C170.947 82.1014 173.339 81.1338 176.181 81.1338H206.417C209.273 81.1338 211.668 82.1014 213.603 84.0365C215.538 85.9716 216.503 88.3636 216.496 91.2126V121.449C216.496 124.304 215.528 126.7 213.593 128.635C211.658 130.57 209.266 131.534 206.417 131.527C203.568 131.521 201.176 130.553 199.241 128.625C197.306 126.696 196.338 124.304 196.338 121.449V115.402L133.346 178.394C131.499 180.241 129.271 181.249 126.664 181.417C124.057 181.585 121.749 180.745 119.74 178.898L91.0157 154.205L56.2441 188.976C55.4042 189.816 54.356 190.532 53.0995 191.123C51.843 191.714 50.5395 192.007 49.189 192Z" fill="#C34534"/>
</svg>
