<svg width="49" height="49" viewBox="0 0 49 49" fill="none" xmlns="http://www.w3.org/2000/svg">
<mask id="mask0_70_1758" style="mask-type:alpha" maskUnits="userSpaceOnUse" x="0" y="0" width="49" height="49">
<rect x="0.5" y="0.5" width="48" height="48" fill="#D9D9D9"/>
</mask>
<g mask="url(#mask0_70_1758)">
<path d="M14.5 42.5C13.4 42.5 12.4583 42.1083 11.675 41.325C10.8917 40.5417 10.5 39.6 10.5 38.5V12.5C9.93333 12.5 9.45833 12.3083 9.075 11.925C8.69167 11.5417 8.5 11.0667 8.5 10.5C8.5 9.93333 8.69167 9.45833 9.075 9.075C9.45833 8.69167 9.93333 8.5 10.5 8.5H18.5C18.5 7.93333 18.6917 7.45833 19.075 7.075C19.4583 6.69167 19.9333 6.5 20.5 6.5H28.5C29.0667 6.5 29.5417 6.69167 29.925 7.075C30.3083 7.45833 30.5 7.93333 30.5 8.5H38.5C39.0667 8.5 39.5417 8.69167 39.925 9.075C40.3083 9.45833 40.5 9.93333 40.5 10.5C40.5 11.0667 40.3083 11.5417 39.925 11.925C39.5417 12.3083 39.0667 12.5 38.5 12.5V38.5C38.5 39.6 38.1083 40.5417 37.325 41.325C36.5417 42.1083 35.6 42.5 34.5 42.5H14.5ZM34.5 12.5H14.5V38.5H34.5V12.5ZM20.5 34.5C21.0667 34.5 21.5417 34.3083 21.925 33.925C22.3083 33.5417 22.5 33.0667 22.5 32.5V18.5C22.5 17.9333 22.3083 17.4583 21.925 17.075C21.5417 16.6917 21.0667 16.5 20.5 16.5C19.9333 16.5 19.4583 16.6917 19.075 17.075C18.6917 17.4583 18.5 17.9333 18.5 18.5V32.5C18.5 33.0667 18.6917 33.5417 19.075 33.925C19.4583 34.3083 19.9333 34.5 20.5 34.5ZM28.5 34.5C29.0667 34.5 29.5417 34.3083 29.925 33.925C30.3083 33.5417 30.5 33.0667 30.5 32.5V18.5C30.5 17.9333 30.3083 17.4583 29.925 17.075C29.5417 16.6917 29.0667 16.5 28.5 16.5C27.9333 16.5 27.4583 16.6917 27.075 17.075C26.6917 17.4583 26.5 17.9333 26.5 18.5V32.5C26.5 33.0667 26.6917 33.5417 27.075 33.925C27.4583 34.3083 27.9333 34.5 28.5 34.5Z" fill="#C34534"/>
</g>
</svg>
