<svg width="32" height="32" viewBox="0 0 32 32" fill="none" xmlns="http://www.w3.org/2000/svg">
<mask id="mask0_70_1761" style="mask-type:alpha" maskUnits="userSpaceOnUse" x="0" y="0" width="32" height="32">
<rect width="32" height="32" fill="#D9D9D9"/>
</mask>
<g mask="url(#mask0_70_1761)">
<path d="M5.60048 27.9667C5.13381 28.0778 4.72826 27.9611 4.38381 27.6167C4.03937 27.2722 3.9227 26.8667 4.03381 26.4L5.20048 20.7333L11.2671 26.8L5.60048 27.9667ZM13.4338 25.1667L6.83381 18.5667L20.6005 4.79999C21.1116 4.28888 21.7449 4.03333 22.5005 4.03333C23.256 4.03333 23.8894 4.28888 24.4005 4.79999L27.2005 7.59999C27.7116 8.1111 27.9671 8.74444 27.9671 9.49999C27.9671 10.2555 27.7116 10.8889 27.2005 11.4L13.4338 25.1667Z" fill="#F8F8F8"/>
</g>
</svg>
