<svg width="48" height="49" viewBox="0 0 48 49" fill="none" xmlns="http://www.w3.org/2000/svg">
<mask id="mask0_35_3867" style="mask-type:alpha" maskUnits="userSpaceOnUse" x="0" y="0" width="48" height="49">
<rect y="0.5" width="48" height="48" fill="#D9D9D9"/>
</mask>
<g mask="url(#mask0_35_3867)">
<path d="M12 26.5C11.4333 26.5 10.9583 26.3083 10.575 25.925C10.1917 25.5417 10 25.0667 10 24.5C10 23.9333 10.1917 23.4583 10.575 23.075C10.9583 22.6917 11.4333 22.5 12 22.5H36C36.5667 22.5 37.0417 22.6917 37.425 23.075C37.8083 23.4583 38 23.9333 38 24.5C38 25.0667 37.8083 25.5417 37.425 25.925C37.0417 26.3083 36.5667 26.5 36 26.5H12Z" fill="#C34534"/>
</g>
</svg>
