<svg width="81" height="71" viewBox="0 0 81 71" fill="none" xmlns="http://www.w3.org/2000/svg">
<path d="M71 0H10C4.47715 0 0 4.47714 0 9.99999V60.0304C0 65.5533 4.47715 70.0304 10 70.0304H71C76.5229 70.0304 81 65.5533 81 60.0304V10C81 4.47715 76.5229 0 71 0Z" fill="#3A3845"/>
<path d="M81 15.7927H0V17.0668H81V15.7927Z" fill="black"/>
<path d="M63.1344 1.94269H17.8652V14.3345H63.1344V1.94269Z" fill="#86858B"/>
<path d="M37.5751 8.82501C37.577 8.86142 37.5711 8.89781 37.558 8.93182C37.5448 8.96583 37.5247 8.99669 37.4989 9.02242C37.4441 9.07313 37.3716 9.10049 37.297 9.09869H36.274C36.2377 9.09998 36.2015 9.09388 36.1675 9.08077C36.1336 9.06766 36.1027 9.04781 36.0766 9.02242C36.0508 8.99669 36.0307 8.96583 36.0175 8.93182C36.0044 8.89781 35.9985 8.86142 36.0004 8.82501V5.50946C35.9984 5.47301 36.0042 5.43656 36.0172 5.40247C36.0303 5.36839 36.0504 5.33744 36.0762 5.31163C36.102 5.28582 36.133 5.26573 36.1671 5.25266C36.2011 5.23959 36.2376 5.23384 36.274 5.23578H37.297C37.3341 5.23388 37.3712 5.23967 37.4059 5.2528C37.4406 5.26592 37.4723 5.2861 37.4989 5.31205C37.5249 5.33761 37.5452 5.36845 37.5584 5.4025C37.5715 5.43655 37.5773 5.47302 37.5751 5.50946V8.82501ZM37.2387 8.79361V5.53638H36.3413V8.79361H37.2387Z" fill="white"/>
<path d="M39.7728 8.82507C39.7738 8.86178 39.7671 8.89829 39.7532 8.93227C39.7393 8.96626 39.7185 8.99698 39.692 9.02248C39.6372 9.07319 39.5648 9.10055 39.4901 9.09875H38.4672C38.4309 9.10004 38.3946 9.09394 38.3607 9.08083C38.3268 9.06772 38.2958 9.04787 38.2698 9.02248C38.2194 8.9693 38.1919 8.89836 38.1935 8.82507V5.50952C38.1922 5.47317 38.1983 5.43694 38.2114 5.40301C38.2246 5.36908 38.2444 5.33816 38.2698 5.31211C38.2954 5.28605 38.3262 5.26575 38.3602 5.2526C38.3943 5.23944 38.4308 5.23373 38.4672 5.23584H39.4812C39.5183 5.23394 39.5553 5.23973 39.5901 5.25286C39.6248 5.26598 39.6565 5.28616 39.6831 5.31211C39.7099 5.33727 39.7311 5.36793 39.745 5.40199C39.7589 5.43606 39.7654 5.47274 39.7638 5.50952L39.7728 8.82507ZM39.4273 8.79367V5.53644H38.53V8.79367H39.4273Z" fill="white"/>
<path d="M40.6874 7.42973H40.3105V6.98108H40.6874V7.42973ZM40.6874 9.09873H40.3105V8.65007H40.6874V9.09873Z" fill="white"/>
<path d="M42.8062 8.82507C42.8072 8.86178 42.8005 8.89829 42.7866 8.93227C42.7727 8.96626 42.7519 8.99698 42.7254 9.02248C42.6994 9.04787 42.6685 9.06772 42.6345 9.08083C42.6006 9.09394 42.5644 9.10004 42.528 9.09875H41.5006C41.4642 9.10069 41.4277 9.09494 41.3936 9.08187C41.3595 9.06881 41.3286 9.04871 41.3028 9.0229C41.277 8.99709 41.2569 8.96614 41.2438 8.93206C41.2307 8.89797 41.225 8.86152 41.2269 8.82507V5.50952C41.2256 5.47317 41.2317 5.43694 41.2449 5.40301C41.258 5.36908 41.2778 5.33816 41.3032 5.31211C41.3289 5.28628 41.3598 5.26614 41.3938 5.253C41.4278 5.23986 41.4642 5.23402 41.5006 5.23584H42.528C42.5645 5.23373 42.6009 5.23944 42.635 5.2526C42.669 5.26575 42.6999 5.28605 42.7254 5.31211C42.7523 5.33727 42.7734 5.36793 42.7874 5.40199C42.8013 5.43606 42.8077 5.47274 42.8062 5.50952V8.82507ZM42.4607 8.79367V5.53644H41.5634V8.79367H42.4607Z" fill="white"/>
<path d="M44.9994 8.82507C45.0004 8.86178 44.9937 8.89829 44.9798 8.93227C44.9659 8.96626 44.9451 8.99698 44.9187 9.02248C44.8926 9.04787 44.8617 9.06772 44.8278 9.08083C44.7938 9.09394 44.7576 9.10004 44.7212 9.09875H43.6938C43.6582 9.09943 43.6228 9.09304 43.5897 9.07995C43.5566 9.06686 43.5264 9.04732 43.5009 9.02248C43.4745 8.99698 43.4537 8.96626 43.4398 8.93227C43.4259 8.89829 43.4192 8.86178 43.4201 8.82507V5.50952C43.4186 5.47274 43.425 5.43606 43.439 5.40199C43.4529 5.36793 43.474 5.33727 43.5009 5.31211C43.5258 5.2864 43.5559 5.26629 43.5891 5.25314C43.6224 5.23998 43.6581 5.23409 43.6938 5.23584H44.7212C44.7577 5.23373 44.7942 5.23944 44.8282 5.2526C44.8623 5.26575 44.8931 5.28605 44.9187 5.31211C44.9455 5.33727 44.9667 5.36793 44.9806 5.40199C44.9945 5.43606 45.0009 5.47274 44.9994 5.50952V8.82507ZM44.6584 8.79367V5.53644H43.7611V8.79367H44.6584Z" fill="white"/>
<path d="M40.501 12.7149C40.2851 12.7158 40.0739 12.6526 39.8941 12.5333C39.7142 12.4141 39.5737 12.2441 39.4905 12.045C39.4073 11.8458 39.3851 11.6265 39.4267 11.4147C39.4682 11.2029 39.5717 11.0083 39.724 10.8553C39.8763 10.7024 40.0705 10.5981 40.2821 10.5557C40.4937 10.5133 40.7132 10.5346 40.9127 10.617C41.1121 10.6994 41.2827 10.8391 41.4027 11.0185C41.5227 11.1979 41.5867 11.4088 41.5867 11.6246C41.5873 11.7676 41.5597 11.9093 41.5054 12.0415C41.4511 12.1738 41.3712 12.294 41.2703 12.3953C41.1694 12.4966 41.0495 12.577 40.9175 12.6318C40.7855 12.6866 40.6439 12.7149 40.501 12.7149ZM40.501 10.8081C40.3382 10.8072 40.1788 10.8547 40.0431 10.9446C39.9074 11.0345 39.8015 11.1626 39.7388 11.3129C39.6761 11.4631 39.6595 11.6285 39.691 11.7882C39.7226 11.9479 39.8008 12.0946 39.9159 12.2097C40.031 12.3248 40.1777 12.4031 40.3374 12.4346C40.4971 12.4661 40.6625 12.4495 40.8128 12.3868C40.963 12.3241 41.0911 12.2182 41.181 12.0825C41.2709 11.9468 41.3184 11.7874 41.3175 11.6246C41.3163 11.4084 41.2299 11.2014 41.0771 11.0486C40.9242 10.8957 40.7172 10.8093 40.501 10.8081Z" fill="#EA5C5B"/>
<path d="M41.0854 10.8659L40.4062 11.5319L40.5947 11.7241L41.2738 11.0581L41.0854 10.8659Z" fill="#EA5C5B"/>
<path d="M27.5866 8.9731C27.5866 9.78148 27.3469 10.5717 26.8978 11.2439C26.4487 11.916 25.8103 12.4399 25.0635 12.7492C24.3166 13.0586 23.4948 13.1395 22.702 12.9818C21.9091 12.8241 21.1808 12.4348 20.6092 11.8632C20.0376 11.2916 19.6484 10.5633 19.4906 9.77048C19.3329 8.97764 19.4139 8.15583 19.7232 7.40898C20.0326 6.66214 20.5565 6.0238 21.2286 5.57469C21.9007 5.12558 22.691 4.88586 23.4994 4.88586C24.5834 4.88586 25.623 5.31648 26.3895 6.08299C27.156 6.84949 27.5866 7.8891 27.5866 8.9731Z" fill="#E7E8ED"/>
<path d="M27.1569 9.07181C27.2101 7.05307 25.6167 5.37341 23.598 5.3202C21.5792 5.26698 19.8996 6.86036 19.8464 8.8791C19.7931 10.8978 21.3865 12.5775 23.4053 12.6307C25.424 12.6839 27.1037 11.0906 27.1569 9.07181Z" fill="#D9DDE6"/>
<path d="M23.8604 5.38389C23.8604 5.45488 23.8394 5.52427 23.7999 5.58329C23.7605 5.64232 23.7044 5.68832 23.6389 5.71549C23.5733 5.74265 23.5011 5.74976 23.4315 5.73591C23.3619 5.72206 23.2979 5.68788 23.2477 5.63768C23.1975 5.58749 23.1633 5.52353 23.1495 5.45391C23.1356 5.38429 23.1427 5.31212 23.1699 5.24653C23.1971 5.18095 23.2431 5.12489 23.3021 5.08545C23.3611 5.04601 23.4305 5.02496 23.5015 5.02496C23.5967 5.02496 23.688 5.06278 23.7553 5.13009C23.8226 5.1974 23.8604 5.28869 23.8604 5.38389Z" fill="white"/>
<path d="M61.5866 8.9731C61.5866 9.78148 61.3469 10.5717 60.8978 11.2439C60.4487 11.916 59.8103 12.4399 59.0635 12.7492C58.3166 13.0586 57.4948 13.1395 56.702 12.9818C55.9091 12.8241 55.1808 12.4348 54.6092 11.8632C54.0376 11.2916 53.6484 10.5633 53.4906 9.77048C53.3329 8.97764 53.4139 8.15583 53.7232 7.40898C54.0326 6.66214 54.5565 6.0238 55.2286 5.57469C55.9007 5.12558 56.691 4.88586 57.4994 4.88586C58.5834 4.88586 59.623 5.31648 60.3895 6.08299C61.156 6.84949 61.5866 7.8891 61.5866 8.9731Z" fill="#E7E8ED"/>
<path d="M61.1568 8.97306C61.1568 9.69625 60.9424 10.4032 60.5406 11.0045C60.1388 11.6058 59.5677 12.0745 58.8996 12.3513C58.2314 12.628 57.4962 12.7004 56.7869 12.5593C56.0776 12.4182 55.4261 12.07 54.9147 11.5586C54.4033 11.0472 54.0551 10.3957 53.914 9.68641C53.7729 8.97712 53.8453 8.24191 54.1221 7.57377C54.3988 6.90562 54.8675 6.33455 55.4688 5.93276C56.0701 5.53098 56.7771 5.31653 57.5003 5.31653C58.4697 5.31772 59.3991 5.70334 60.0845 6.38881C60.77 7.07429 61.1556 8.00365 61.1568 8.97306Z" fill="#D9DDE6"/>
<path d="M57.876 5.38389C57.876 5.45488 57.855 5.52427 57.8156 5.58329C57.7761 5.64232 57.7201 5.68832 57.6545 5.71549C57.5889 5.74265 57.5167 5.74976 57.4471 5.73591C57.3775 5.72206 57.3135 5.68788 57.2633 5.63768C57.2131 5.58749 57.1789 5.52353 57.1651 5.45391C57.1513 5.38429 57.1584 5.31212 57.1855 5.24653C57.2127 5.18095 57.2587 5.12489 57.3177 5.08545C57.3767 5.04601 57.4461 5.02496 57.5171 5.02496C57.6123 5.02496 57.7036 5.06278 57.7709 5.13009C57.8382 5.1974 57.876 5.28869 57.876 5.38389Z" fill="white"/>
<path d="M57.8763 4.35197C57.8793 4.37211 57.8776 4.39269 57.8712 4.41204C57.8648 4.43139 57.854 4.44897 57.8396 4.46337C57.8252 4.47778 57.8076 4.4886 57.7883 4.49496C57.7689 4.50133 57.7483 4.50306 57.7282 4.50003H57.3154C57.2167 4.50003 57.1719 4.45068 57.1719 4.35197V3.37839C57.1719 3.27969 57.2167 3.23034 57.3154 3.23034H57.7282C57.7483 3.2273 57.7689 3.22903 57.7883 3.2354C57.8076 3.24177 57.8252 3.25259 57.8396 3.26699C57.854 3.28139 57.8648 3.29898 57.8712 3.31833C57.8776 3.33768 57.8793 3.35825 57.8763 3.37839V3.62964H57.7013V3.38288H57.3424V4.34748H57.7013V4.06483H57.8763V4.35197Z" fill="white"/>
<path d="M58.2895 3.19892C58.2936 3.22517 58.292 3.25201 58.2848 3.27759C58.2776 3.30316 58.2649 3.32687 58.2476 3.34707C58.2303 3.36728 58.2089 3.3835 58.1848 3.39462C58.1606 3.40575 58.1344 3.4115 58.1078 3.4115C58.0812 3.4115 58.0549 3.40575 58.0308 3.39462C58.0067 3.3835 57.9852 3.36728 57.9679 3.34707C57.9507 3.32687 57.938 3.30316 57.9308 3.27759C57.9235 3.25201 57.9219 3.22517 57.9261 3.19892C57.9219 3.17266 57.9235 3.14582 57.9308 3.12025C57.938 3.09467 57.9507 3.07096 57.9679 3.05076C57.9852 3.03056 58.0067 3.01433 58.0308 3.00321C58.0549 2.99209 58.0812 2.98633 58.1078 2.98633C58.1344 2.98633 58.1606 2.99209 58.1848 3.00321C58.2089 3.01433 58.2303 3.03056 58.2476 3.05076C58.2649 3.07096 58.2776 3.09467 58.2848 3.12025C58.292 3.14582 58.2936 3.17266 58.2895 3.19892Z" fill="white"/>
<path d="M24.1778 3.3335H22.8184V4.54935H24.1778V3.3335Z" fill="white"/>
<path d="M24.0529 3.59375H22.9492V4.28468H24.0529V3.59375Z" fill="#D9DDE6"/>
<path d="M44.0942 11.7009L43.0938 12.4457V12.1675L43.8251 11.6291L43.0938 11.0863V10.8081L44.0808 11.5574L44.0942 11.7009Z" fill="white"/>
<path d="M36.9023 11.7009L37.9073 12.4457V12.1675L37.176 11.6291L37.9073 11.0863V10.8081L36.9158 11.5574L36.9023 11.7009Z" fill="white"/>
<path d="M34.0353 12.2707C33.9073 12.2716 33.782 12.2344 33.6752 12.164C33.5683 12.0935 33.4848 11.993 33.4352 11.875C33.3857 11.757 33.3722 11.627 33.3966 11.5014C33.4211 11.3757 33.4822 11.2602 33.5724 11.1694C33.6626 11.0786 33.7777 11.0166 33.9031 10.9913C34.0286 10.966 34.1587 10.9786 34.277 11.0273C34.3953 11.0761 34.4965 11.1589 34.5677 11.2652C34.6389 11.3716 34.6769 11.4967 34.6769 11.6246C34.6775 11.7093 34.6613 11.7932 34.6293 11.8715C34.5974 11.9499 34.5502 12.0211 34.4906 12.0812C34.4309 12.1412 34.36 12.1889 34.2819 12.2214C34.2037 12.2539 34.1199 12.2707 34.0353 12.2707ZM34.0353 11.1446C33.9393 11.1446 33.8454 11.1731 33.7657 11.2265C33.6859 11.28 33.6238 11.3559 33.5872 11.4447C33.5507 11.5335 33.5414 11.6312 33.5604 11.7253C33.5795 11.8194 33.6261 11.9057 33.6943 11.9733C33.7625 12.0409 33.8493 12.0867 33.9436 12.1049C34.0379 12.1231 34.1354 12.1128 34.2239 12.0755C34.3123 12.0381 34.3877 11.9753 34.4404 11.895C34.4931 11.8148 34.5208 11.7206 34.5199 11.6246C34.5199 11.5612 34.5073 11.4984 34.4829 11.4399C34.4585 11.3813 34.4227 11.3282 34.3777 11.2836C34.3326 11.2389 34.2792 11.2037 34.2204 11.1798C34.1616 11.1559 34.0987 11.144 34.0353 11.1446Z" fill="white"/>
<path d="M31.7065 12.1092H31.4238V11.4855H33.4652V11.7682H31.7065V12.1092Z" fill="white"/>
<path d="M32.1147 11.6246H31.832V12.0823H32.1147V11.6246Z" fill="white"/>
<path d="M47.7049 11.6246L46.9062 12.3021V10.9517L47.7049 11.6246Z" fill="white"/>
<path d="M48.0453 10.7228H47.9062V12.5264H48.0453V10.7228Z" fill="white"/>
<path d="M48.248 11.0459V12.1945H49.4011V11.0459H48.248ZM49.2216 12.024H48.4544V11.2164H49.2441L49.2216 12.024Z" fill="white"/>
<path d="M79.5098 20.6516H1.48438V25.5105H79.5098V20.6516Z" fill="#86858B"/>
<path d="M72.4002 39.1765H8.60156V39.9976H72.4002V39.1765Z" fill="black"/>
<path d="M72.4002 47.1087H8.60156V47.9297H72.4002V47.1087Z" fill="black"/>
<path d="M72.4002 55.0453H8.60156V55.8664H72.4002V55.0453Z" fill="black"/>
<path opacity="0.3" d="M72.4002 27.8165H8.60156V65.1087H72.4002V27.8165Z" fill="#E7E8ED"/>
</svg>
