<svg width="241" height="192" viewBox="0 0 241 192" fill="none" xmlns="http://www.w3.org/2000/svg">
<g clip-path="url(#clip0_15_1006)">
<path d="M48.25 36C58.1875 36 66.25 27.9375 66.25 18C66.25 8.0625 58.1875 0 48.25 0C38.3125 0 30.25 8.0625 30.25 18C30.25 27.9375 38.3125 36 48.25 36ZM192.25 36C202.188 36 210.25 27.9375 210.25 18C210.25 8.0625 202.188 0 192.25 0C182.312 0 174.25 8.0625 174.25 18C174.25 27.9375 182.312 36 192.25 36ZM239.387 175.538L222.887 134.288L207.475 151.688L206.725 158.513L217.112 184.462C218.987 189.15 223.487 192 228.25 192C229.75 192 231.25 191.738 232.712 191.138C238.863 188.663 241.863 181.688 239.387 175.538ZM226.562 96.8625L219.625 66.7875C217.9 59.2875 212.65 52.9875 205.562 49.95C198.625 46.95 190.938 47.4375 184.525 51.1875C176.012 56.2125 169.637 64.125 166.488 73.4625L162.25 86.175L156.25 90V54C156.25 50.7 153.55 48 150.25 48H90.25C86.95 48 84.25 50.7 84.25 54V90L78.2125 86.175L73.975 73.4625C70.8625 64.0875 64.45 56.2125 55.9375 51.1875C49.4875 47.4375 41.8375 46.95 34.9 49.95C27.8125 52.9875 22.5625 59.2875 20.8375 66.7875L13.9375 96.8625C12.2125 104.362 14.2 112.312 19.3375 118.125L44.5375 146.587L48.325 181.312C49 187.425 54.175 192 60.25 192C60.7 192 61.1125 191.962 61.5625 191.925C68.1625 191.212 72.8875 185.288 72.175 178.688L68.3875 143.888C67.825 139.013 65.8 134.475 62.5375 130.763L46.3 112.388L52.9 86.025L55.45 93.675C56.9875 98.3625 59.9125 102.45 64.6375 105.9L83.8 118.087C85.525 119.175 88.3375 119.812 90.25 119.962H150.25C152.163 119.812 154.975 119.175 156.7 118.087L175.863 105.9C180.587 102.45 183.512 98.4 185.05 93.675L187.6 86.025L194.2 112.388L177.962 130.763C174.7 134.475 172.675 139.013 172.113 143.888L168.325 178.688C167.613 185.288 172.375 191.212 178.938 191.925C179.387 191.962 179.8 192 180.25 192C186.288 192 191.5 187.462 192.175 181.312L195.962 146.587L221.162 118.125C226.262 112.312 228.287 104.362 226.562 96.8625ZM17.6125 134.288L1.1125 175.538C-1.3625 181.688 1.6375 188.663 7.7875 191.138C14.0875 193.613 20.95 190.5 23.3875 184.462L33.775 158.513L33.025 151.688L17.6125 134.288Z" fill="#C34534"/>
</g>
<defs>
<clipPath id="clip0_15_1006">
<rect width="240" height="192" fill="white" transform="translate(0.25)"/>
</clipPath>
</defs>
</svg>
