<svg width="75" height="45" viewBox="0 0 75 45" fill="none" xmlns="http://www.w3.org/2000/svg">
<path d="M40.6215 31.3086L3.88477 24.3491C3.88477 24.3491 6.10481 33.5411 6.86561 34.7821C7.62641 36.023 12.2848 39.4155 16.756 41.0057C21.2273 42.5959 55.4073 41.5669 58.2946 40.4694C61.1756 39.3781 66.3765 37.0208 67.4928 35.574C68.4407 34.3455 71.1721 23.7442 71.1721 23.7442L40.6215 31.3086Z" fill="#878787"/>
<path d="M7.9375 29.0262L10.4881 37.8503C10.4881 37.8503 12.3152 39.1536 14.9219 40.3323C17.566 41.5296 21.0956 42.4463 21.0956 42.4463C21.0956 42.4463 25.093 36.073 25.0244 35.6365C24.9558 35.2 19.9357 33.8592 19.9357 33.8592C19.9357 33.8592 15.8573 32.7305 13.5999 31.8574C11.3486 30.9906 7.9375 29.0262 7.9375 29.0262Z" fill="#E0E0E0"/>
<path d="M57.8264 33.3353C57.8264 33.3353 60.7012 32.4436 62.2041 31.8761C63.9502 31.2151 66.0144 30.13 66.0144 30.13L63.8816 37.9875C63.8816 37.9875 62.1417 38.9728 60.5453 39.6712C59.2118 40.2492 57.8507 40.7612 56.4669 41.2053L54.9453 37.5696L57.8264 33.3353Z" fill="#ABABAB"/>
<path d="M21.0826 42.4463C21.0826 42.4463 29.2394 44.342 38.9989 44.0489C47.9539 43.7808 56.4786 41.2115 56.4786 41.2115L57.8692 33.3229C57.8692 33.3229 52.3316 35.4494 36.8911 35.8111C27.5681 36.0293 19.9414 33.8592 19.9414 33.8592L21.0826 42.4463Z" fill="#C8C8C8"/>
<path d="M3.09375 14.3339C3.09375 15.0635 3.89197 21.1811 3.89197 21.1811C3.89197 21.1811 5.7129 23.7317 6.66079 24.2431C7.60867 24.7544 21.4465 29.3442 22.0265 29.4876C22.6064 29.631 43.5098 30.4355 45.0439 30.4355C46.5779 30.4355 63.2532 26.5005 63.2532 26.5005L72.7134 21.9045C72.7134 21.9045 73.1686 17.8386 73.1686 17.4769C73.1686 17.1152 72.1022 12.4444 71.7093 12.0889C71.1543 11.5838 68.2047 10.1869 68.2047 10.1869C68.2047 10.1869 66.6893 8.35352 64.0078 6.80074C61.2514 5.21054 53.8804 2.14238 49.4403 1.05107C45.0002 -0.0402434 31.4991 -0.670088 24.0719 1.15085C16.6448 2.97178 11.5436 4.93615 9.21134 7.41187C6.87905 9.8876 6.006 11.4903 6.006 11.4903L3.09375 14.3339Z" fill="url(#paint0_radial_77_2548)"/>
<path d="M31.2985 2.27965C31.4357 2.89078 30.07 2.77853 27.0392 4.16918C24.7381 5.22308 22.1564 8.03555 21.4517 6.43288C20.7034 4.7429 23.1541 3.19012 26.4655 2.43555C28.8851 1.88054 31.1862 1.78076 31.2985 2.27965ZM34.3729 4.92998C33.8677 4.69925 32.608 6.15849 31.4107 8.0792C30.2134 9.99991 28.6357 12.5442 30.2757 13.1242C32.1965 13.8039 32.7328 10.5923 33.1319 9.37007C33.9051 7.00036 34.7907 5.11706 34.3729 4.92998ZM40.7399 4.58076C40.372 4.76161 40.9457 6.23956 41.5818 8.07297C42.2178 9.90637 42.8165 13.0805 44.7809 12.3946C46.7452 11.7148 43.9889 8.00437 43.4588 7.27475C42.698 6.23332 41.2014 4.35003 40.7399 4.58076ZM43.9889 2.67252C43.9639 3.35225 46.6642 3.96339 49.302 5.3478C51.4161 6.46406 53.8918 8.03555 54.3595 6.72597C54.8272 5.40392 53.6174 4.77408 50.3746 3.62041C47.1381 2.46673 44.0201 1.99903 43.9889 2.67252Z" fill="#CE701D"/>
<path d="M47.0075 27.9411C47.0075 27.9411 49.3211 25.5215 52.9755 25.4716C56.6298 25.4155 58.0828 26.4944 58.0828 26.4944C58.0828 26.4944 59.6418 23.763 62.392 23.0396C65.6035 22.1977 67.5367 23.7006 67.6989 23.4324C67.861 23.1643 68.4784 19.7906 69.5634 18.2316C70.8169 16.4418 71.8646 16.473 71.8646 16.473C71.8646 16.473 71.5964 14.5772 70.4116 12.8561C69.4138 11.403 68.2165 10.187 68.2165 10.187C68.2165 10.187 70.8543 9.75049 72.7813 12.0142C74.1844 13.6605 73.885 16.6601 73.885 16.6601C73.885 16.6601 75.7683 17.8449 74.6396 20.6886C73.5109 23.5322 71.2784 25.6213 67.8173 27.779C65.3853 29.3006 56.0249 33.0859 46.7394 33.6783C37.0298 34.2957 25.8173 34.6262 15.0289 30.6538C7.27125 27.8039 0.985278 23.4013 0.143407 19.0984C-0.7047 14.7955 2.44452 12.6877 3.42359 12.0953C4.40265 11.5028 6.01156 11.4966 6.01156 11.4966C6.01156 11.4966 5.23828 12.5879 4.88906 13.6293C4.53984 14.677 4.39641 15.5937 4.39641 15.5937C4.39641 15.5937 5.6561 17.1153 5.96791 18.1318C6.27971 19.142 6.31713 21.5803 6.31713 21.5803C6.31713 21.5803 7.81379 19.9901 10.2271 20.9692C13.4699 22.285 17.0868 26.9122 17.0868 26.9122C17.0868 26.9122 18.1657 24.8231 22.2129 25.1349C26.2601 25.4467 31.7666 29.4565 31.7666 29.4565C31.7666 29.4565 35.0655 26.0329 40.1479 26.1327C44.7813 26.2262 47.0075 27.9411 47.0075 27.9411Z" fill="#E08013"/>
<path d="M72.24 17.8636C71.6912 17.5082 70.8618 18.2253 70.2881 19.1046C69.5398 20.2396 69.3464 21.6864 69.7892 21.8734C70.4627 22.1603 71.1424 20.6325 71.8159 19.7781C72.2649 19.2106 72.9509 18.3251 72.24 17.8636ZM64.5322 24.4926C64.9313 25.1474 63.5593 25.6962 63.023 26.4071C62.493 27.118 62.5491 28.1532 62.0627 28.253C60.9963 28.4775 59.9986 26.8311 60.0734 26.2262C60.1482 25.6213 61.6386 24.6298 62.1687 24.4489C62.6988 24.2681 64.1455 23.8503 64.5322 24.4926ZM53.4756 27.1492C53.6939 27.673 51.9852 29.1759 51.3429 29.8868C50.7006 30.5977 49.9772 31.9884 49.2101 31.8761C48.2498 31.7327 47.9941 29.893 48.4556 28.8267C48.917 27.7603 49.7589 26.8062 51.0248 26.5817C52.0164 26.4008 53.2262 26.5443 53.4756 27.1492ZM33.5389 32.8677C34.7175 33.959 36.5322 31.477 37.0186 30.8409C38.4778 28.9576 40.1179 28.4338 40.1429 27.8227C40.1803 27.0057 37.6173 26.9371 35.8088 27.9287C34.1812 28.8267 32.117 31.5518 33.5389 32.8677ZM22.6756 26.8187C22.6444 27.542 21.5032 27.8476 20.6863 28.8454C20.0814 29.5812 19.4079 31.6142 18.0235 30.9407C16.6391 30.2672 17.2565 28.2218 18.2355 27.2427C19.5825 25.8957 22.7068 25.9269 22.6756 26.8187ZM7.38474 25.8334C8.13307 26.2574 8.20166 24.4677 8.80656 23.7567C9.41146 23.0458 10.3032 22.9897 10.2658 22.1354C10.2284 21.281 8.28273 21.0815 7.45957 21.6365C6.03151 22.5968 6.38696 25.2659 7.38474 25.8334ZM2.51436 20.9318C3.47471 21.1064 3.11926 19.2979 3.61814 18.5496C4.11703 17.8013 4.85912 17.5207 4.36647 16.6289C3.86759 15.7434 2.0903 15.918 1.56024 17.4084C1.16736 18.4997 1.09253 20.6636 2.51436 20.9318Z" fill="#EC9C2A"/>
<defs>
<radialGradient id="paint0_radial_77_2548" cx="0" cy="0" r="1" gradientUnits="userSpaceOnUse" gradientTransform="translate(38.67 1.44083) rotate(90) scale(27.011 58.8569)">
<stop offset="0.386" stop-color="#FAC470"/>
<stop offset="0.767" stop-color="#ED9C2C"/>
</radialGradient>
</defs>
</svg>
