<svg width="241" height="192" viewBox="0 0 241 192" fill="none" xmlns="http://www.w3.org/2000/svg">
<g clip-path="url(#clip0_15_1029)">
<path d="M247.311 60.005C246.387 56.9398 244.741 54.1412 242.51 51.8443C240.81 50.0059 238.624 48.6857 236.206 48.036C237.39 49.9082 238.462 52.0683 239.262 54.3725C240.169 56.7301 240.718 59.2209 240.91 61.8451C241.177 64.0988 241.177 66.3761 240.91 68.6297C240.412 66.9589 239.645 65.3806 238.638 63.9573C236.653 61.2829 234.006 59.1709 230.957 57.8288C227.577 56.3142 223.756 56.1004 220.228 57.2283C216.699 58.3563 213.711 60.7466 211.836 63.9413C211.036 65.2534 210.396 66.6722 209.916 68.1977C191.002 36.7071 156.967 15.8573 118.052 15.8573C116.068 15.8573 114.1 15.9107 112.147 16.0173C100.074 16.0364 88.061 17.7218 76.4485 21.0257C75.4564 14.0812 66.3356 0 24.4121 0L37.2132 40.1633C29.1618 46.6682 22.3948 54.6182 17.2595 63.6053L-7.59054 64.0053C-7.59054 64.0053 -10.3108 128.011 8.4108 128.011H17.0515C22.9428 137.975 30.8116 146.628 40.1734 153.437L40.4135 192H57.6949C78.6567 192 88.4175 192 88.4175 179.999V173.758C104.559 176.733 121.112 176.689 137.238 173.63L136.421 179.999C136.421 192 146.342 192 167.464 192H184.425V153.757C199.42 143.344 210.215 127.931 214.876 110.281C215.788 109.849 216.7 109.897 217.628 109.897C218.556 109.897 219.468 109.849 220.38 109.737C224.397 109.001 228.061 107.433 231.245 105.209C235.549 102.164 238.843 97.9007 240.702 92.9677C241.15 91.4743 241.486 89.9168 241.71 88.2954L241.726 88.1353C245.263 83.943 247.679 78.6946 248.431 72.9181C249.07 68.5037 248.676 64.001 247.279 59.765L247.311 60.005ZM48.5741 60.005C51.757 60.005 54.8095 61.2694 57.0601 63.52C59.3108 65.7706 60.5751 68.8231 60.5751 72.006C60.5751 75.1889 59.3108 78.2414 57.0601 80.492C54.8095 82.7426 51.757 84.007 48.5741 84.007C45.3913 84.007 42.3388 82.7426 40.0882 80.492C37.8375 78.2414 36.5731 75.1889 36.5731 72.006C36.5731 68.8231 37.8375 65.7706 40.0882 63.52C42.3388 61.2694 45.3913 60.005 48.5741 60.005ZM86.4973 48.004C84.6906 48.5902 82.7342 48.5145 80.9781 47.7904C79.2221 47.0663 77.7809 45.741 76.9125 44.0517C76.6403 43.2121 76.5493 42.3243 76.6455 41.447C76.7417 40.5697 77.0229 39.7227 77.4705 38.9621C77.9181 38.2014 78.522 37.5444 79.2422 37.0343C79.9625 36.5242 80.7828 36.1727 81.6489 36.003C92.1726 33.4753 102.974 32.2925 113.796 32.4827L115.412 32.4667C126.186 32.488 136.581 33.7255 146.598 36.179C148.615 36.563 150.791 39.0913 150.791 42.1315C150.786 42.7779 150.684 43.4199 150.487 44.0357C149.929 45.0754 149.14 45.9728 148.18 46.6582C147.22 47.3436 146.115 47.7986 144.95 47.988H142.502C133.563 45.8358 124.398 44.7614 115.204 44.7877H113.78C104.099 44.7877 94.69 45.9558 85.6812 48.164L86.4973 48.004ZM225.709 94.8879C223.54 96.4413 221.071 97.5258 218.46 98.0722L216.428 98.2482V91.0476C219.068 93.0478 222.413 94.2478 226.029 94.2478H226.365L225.709 94.8879ZM226.989 84.007C225.502 84.2154 223.987 83.9428 222.665 83.2288C221.344 82.5148 220.285 81.397 219.644 80.0387C218.902 78.6443 218.515 77.0881 218.517 75.5083C218.52 73.9284 218.913 72.3737 219.66 70.9819C220.417 69.9232 221.537 69.1809 222.807 68.8974C224.077 68.6139 225.406 68.8092 226.541 69.4458C227.991 70.0023 229.238 70.9853 230.118 72.2651C230.998 73.5449 231.469 75.0613 231.469 76.6144C231.776 78.8337 231.771 81.1011 231.453 83.3189C229.967 83.6001 228.453 83.7181 226.941 83.671L226.989 84.007Z" fill="#C34534"/>
</g>
<defs>
<clipPath id="clip0_15_1029">
<rect width="240" height="192" fill="white" transform="translate(0.75)"/>
</clipPath>
</defs>
</svg>
