<svg width="32" height="32" viewBox="0 0 32 32" fill="none" xmlns="http://www.w3.org/2000/svg">
<mask id="mask0_70_1767" style="mask-type:alpha" maskUnits="userSpaceOnUse" x="0" y="0" width="32" height="32">
<rect width="32" height="32" fill="#D9D9D9"/>
</mask>
<g mask="url(#mask0_70_1767)">
<path d="M12.7333 20.2L24.0333 8.9C24.3 8.63333 24.6111 8.5 24.9666 8.5C25.3222 8.5 25.6333 8.63333 25.9 8.9C26.1666 9.16667 26.3 9.48333 26.3 9.85C26.3 10.2167 26.1666 10.5333 25.9 10.8L13.6666 23.0667C13.4 23.3333 13.0888 23.4667 12.7333 23.4667C12.3777 23.4667 12.0666 23.3333 11.8 23.0667L6.06662 17.3333C5.79995 17.0667 5.67217 16.75 5.68328 16.3833C5.69439 16.0167 5.83328 15.7 6.09995 15.4333C6.36662 15.1667 6.68328 15.0333 7.04995 15.0333C7.41662 15.0333 7.73328 15.1667 7.99995 15.4333L12.7333 20.2Z" fill="#F8F8F8"/>
</g>
</svg>
