<svg width="33" height="33" viewBox="0 0 33 33" fill="none" xmlns="http://www.w3.org/2000/svg">
<path d="M23.4167 4.95333C25.4437 6.12358 27.1269 7.80677 28.2971 9.83371C29.4674 11.8606 30.0834 14.1599 30.0834 16.5004C30.0834 18.8409 29.4673 21.1402 28.297 23.1671C27.1268 25.194 25.4436 26.8772 23.4166 28.0474C21.3897 29.2177 19.0904 29.8337 16.7499 29.8337C14.4094 29.8336 12.1101 29.2175 10.0832 28.0472C8.05628 26.8769 6.37313 25.1937 5.20293 23.1667C4.03272 21.1398 3.41669 18.8405 3.41675 16.5L3.42341 16.068C3.49809 13.7653 4.16815 11.5213 5.36827 9.55466C6.56839 7.58803 8.25762 5.96594 10.2713 4.84651C12.2849 3.72708 14.5543 3.14853 16.8581 3.16725C19.1619 3.18597 21.4216 3.80133 23.4167 4.95333ZM20.0834 17.8333C19.553 17.8333 19.0443 18.044 18.6692 18.4191C18.2941 18.7942 18.0834 19.3029 18.0834 19.8333C18.0834 20.3638 18.2941 20.8725 18.6692 21.2475C19.0443 21.6226 19.553 21.8333 20.0834 21.8333C20.6138 21.8333 21.1226 21.6226 21.4976 21.2475C21.8727 20.8725 22.0834 20.3638 22.0834 19.8333C22.0834 19.3029 21.8727 18.7942 21.4976 18.4191C21.1226 18.044 20.6138 17.8333 20.0834 17.8333ZM21.6927 11.5573C21.4427 11.3074 21.1036 11.167 20.7501 11.167C20.3965 11.167 20.0575 11.3074 19.8074 11.5573L11.8074 19.5573C11.5645 19.8088 11.4301 20.1456 11.4332 20.4952C11.4362 20.8448 11.5764 21.1792 11.8237 21.4264C12.0709 21.6736 12.4053 21.8139 12.7549 21.8169C13.1045 21.8199 13.4413 21.6855 13.6927 21.4427L21.6927 13.4427C21.9427 13.1926 22.0831 12.8536 22.0831 12.5C22.0831 12.1464 21.9427 11.8074 21.6927 11.5573ZM13.4167 11.1667C12.8863 11.1667 12.3776 11.3774 12.0025 11.7525C11.6275 12.1275 11.4167 12.6362 11.4167 13.1667C11.4167 13.6971 11.6275 14.2058 12.0025 14.5809C12.3776 14.956 12.8863 15.1667 13.4167 15.1667C13.9472 15.1667 14.4559 14.956 14.831 14.5809C15.206 14.2058 15.4167 13.6971 15.4167 13.1667C15.4167 12.6362 15.206 12.1275 14.831 11.7525C14.4559 11.3774 13.9472 11.1667 13.4167 11.1667Z" fill="#1E1E1E"/>
</svg>
