<svg width="48" height="49" viewBox="0 0 48 49" fill="none" xmlns="http://www.w3.org/2000/svg">
<path d="M15.6 4.71948H32.4C38.8 4.71948 44 9.91948 44 16.3195V33.1195C44 36.196 42.7779 39.1465 40.6024 41.3219C38.427 43.4973 35.4765 44.7195 32.4 44.7195H15.6C9.2 44.7195 4 39.5195 4 33.1195V16.3195C4 13.243 5.22214 10.2925 7.39756 8.11704C9.57298 5.94162 12.5235 4.71948 15.6 4.71948ZM15.2 8.71948C13.2904 8.71948 11.4591 9.47805 10.1088 10.8283C8.75857 12.1786 8 14.0099 8 15.9195V33.5195C8 37.4995 11.22 40.7195 15.2 40.7195H32.8C34.7096 40.7195 36.5409 39.9609 37.8912 38.6107C39.2414 37.2604 40 35.429 40 33.5195V15.9195C40 11.9395 36.78 8.71948 32.8 8.71948H15.2ZM34.5 11.7195C35.163 11.7195 35.7989 11.9829 36.2678 12.4517C36.7366 12.9206 37 13.5564 37 14.2195C37 14.8825 36.7366 15.5184 36.2678 15.9872C35.7989 16.4561 35.163 16.7195 34.5 16.7195C33.837 16.7195 33.2011 16.4561 32.7322 15.9872C32.2634 15.5184 32 14.8825 32 14.2195C32 13.5564 32.2634 12.9206 32.7322 12.4517C33.2011 11.9829 33.837 11.7195 34.5 11.7195ZM24 14.7195C26.6522 14.7195 29.1957 15.7731 31.0711 17.6484C32.9464 19.5238 34 22.0673 34 24.7195C34 27.3716 32.9464 29.9152 31.0711 31.7906C29.1957 33.6659 26.6522 34.7195 24 34.7195C21.3478 34.7195 18.8043 33.6659 16.9289 31.7906C15.0536 29.9152 14 27.3716 14 24.7195C14 22.0673 15.0536 19.5238 16.9289 17.6484C18.8043 15.7731 21.3478 14.7195 24 14.7195ZM24 18.7195C22.4087 18.7195 20.8826 19.3516 19.7574 20.4768C18.6321 21.6021 18 23.1282 18 24.7195C18 26.3108 18.6321 27.8369 19.7574 28.9621C20.8826 30.0873 22.4087 30.7195 24 30.7195C25.5913 30.7195 27.1174 30.0873 28.2426 28.9621C29.3679 27.8369 30 26.3108 30 24.7195C30 23.1282 29.3679 21.6021 28.2426 20.4768C27.1174 19.3516 25.5913 18.7195 24 18.7195Z" fill="#C34534"/>
</svg>
