<svg width="48" height="49" viewBox="0 0 48 49" fill="none" xmlns="http://www.w3.org/2000/svg">
<path fill-rule="evenodd" clip-rule="evenodd" d="M10.9 9.96548C13.994 6.66748 18.48 4.71948 24.034 4.71948C33.164 4.71948 39.218 9.98148 41.134 17.2735C41.2687 17.7867 41.1941 18.3324 40.9264 18.7905C40.6588 19.2487 40.2202 19.5818 39.707 19.7165C39.1938 19.8512 38.6481 19.7766 38.1899 19.5089C37.7318 19.2413 37.3987 18.8027 37.264 18.2895C35.81 12.7635 31.352 8.71948 24.032 8.71948C19.46 8.71948 16.072 10.2975 13.82 12.6995C11.548 15.1235 10.282 18.5455 10.282 22.4695V26.9695C10.282 30.8935 11.548 34.3155 13.82 36.7375C16.072 39.1435 19.46 40.7195 24.032 40.7195C27.342 40.7195 29.968 39.9515 31.984 38.7095C34.014 37.4595 35.224 35.8015 35.564 33.8995C35.954 31.7075 35.474 30.2035 34.648 29.1175C34.195 28.5332 33.6442 28.0317 33.02 27.6355C32.75 29.1335 32.268 30.5475 31.54 31.6555C28.856 35.7335 23.724 36.0835 20.34 34.7335C18.508 34.0035 16.938 32.0055 16.45 29.8635C16.1537 28.6358 16.2524 27.3458 16.732 26.1775C17.262 24.9055 18.244 23.8215 19.642 22.9975C21.026 22.1795 23.082 21.8035 25.12 21.7475C26.348 21.7135 27.68 21.7955 29.02 22.0135C28.74 20.7135 28.266 19.7435 27.732 19.2455C26.764 18.3455 25.16 17.7115 23.552 17.7215C21.998 17.7335 20.68 18.3315 19.892 19.5915C19.6109 20.0413 19.1626 20.361 18.6457 20.4803C18.1289 20.5995 17.5858 20.5086 17.136 20.2275C16.6862 19.9464 16.3665 19.4981 16.2472 18.9812C16.1279 18.4644 16.2189 17.9213 16.5 17.4715C18.174 14.7955 20.932 13.7415 23.526 13.7215C26.066 13.7035 28.682 14.6655 30.458 16.3175C32.254 17.9895 33.026 20.7315 33.226 23.2255C34.974 23.9875 36.626 25.1055 37.836 26.6995C39.398 28.7595 40.07 31.4155 39.502 34.6015C38.922 37.8495 36.872 40.3975 34.082 42.1155C31.346 43.7995 27.97 44.7195 24.032 44.7195C18.48 44.7195 13.992 42.7715 10.902 39.4735C7.82998 36.1975 6.28198 31.7455 6.28198 26.9695V22.4695C6.28198 17.6935 7.82998 13.2415 10.902 9.96548H10.9ZM29.2 26.1195C27.8955 25.8382 26.5621 25.7133 25.228 25.7475C23.446 25.7955 22.196 26.1335 21.674 26.4415C20.906 26.8955 20.574 27.3575 20.426 27.7155C20.2681 28.1169 20.2415 28.558 20.35 28.9755C20.594 30.0475 21.4 30.8515 21.822 31.0175C24.074 31.9175 26.892 31.4415 28.198 29.4575C28.668 28.7415 29.042 27.5375 29.198 26.1195H29.2Z" fill="#C34534"/>
</svg>
