<svg width="48" height="49" viewBox="0 0 48 49" fill="none" xmlns="http://www.w3.org/2000/svg">
<path d="M33.2001 12.3595C31.8332 10.7985 31.0799 8.79428 31.0801 6.71948H24.9001V31.5195C24.8534 32.8619 24.2871 34.1336 23.3207 35.0665C22.3543 35.9993 21.0633 36.5203 19.7201 36.5195C16.8801 36.5195 14.5201 34.1995 14.5201 31.3195C14.5201 27.8795 17.8401 25.2995 21.2601 26.3595V20.0395C14.3601 19.1195 8.32007 24.4795 8.32007 31.3195C8.32007 37.9795 13.8401 42.7195 19.7001 42.7195C25.9801 42.7195 31.0801 37.6195 31.0801 31.3195V18.7395C33.5861 20.5392 36.5948 21.5048 39.6801 21.4995V15.3195C39.6801 15.3195 35.9201 15.4995 33.2001 12.3595Z" fill="#C34534"/>
</svg>
