<svg width="48" height="49" viewBox="0 0 48 49" fill="none" xmlns="http://www.w3.org/2000/svg">
<path d="M20 30.7195L30.38 24.7195L20 18.7195V30.7195ZM43.12 15.0595C43.38 15.9995 43.56 17.2595 43.68 18.8595C43.82 20.4595 43.88 21.8395 43.88 23.0395L44 24.7195C44 29.0995 43.68 32.3195 43.12 34.3795C42.62 36.1795 41.46 37.3395 39.66 37.8395C38.72 38.0995 37 38.2795 34.36 38.3995C31.76 38.5395 29.38 38.5995 27.18 38.5995L24 38.7195C15.62 38.7195 10.4 38.3995 8.34 37.8395C6.54 37.3395 5.38 36.1795 4.88 34.3795C4.62 33.4395 4.44 32.1795 4.32 30.5795C4.18 28.9795 4.12 27.5995 4.12 26.3995L4 24.7195C4 20.3395 4.32 17.1195 4.88 15.0595C5.38 13.2595 6.54 12.0995 8.34 11.5995C9.28 11.3395 11 11.1595 13.64 11.0395C16.24 10.8995 18.62 10.8395 20.82 10.8395L24 10.7195C32.38 10.7195 37.6 11.0395 39.66 11.5995C41.46 12.0995 42.62 13.2595 43.12 15.0595Z" fill="#C34534"/>
</svg>
